<svg width="74" height="248" viewBox="0 0 74 248" fill="none" xmlns="http://www.w3.org/2000/svg">
<path d="M-3.14087 247.509C13.6659 242.878 29.0566 233.783 41.6628 221.806C54.5145 209.605 64.6705 194.228 70.2038 177.342C73.0747 168.57 74.6688 159.107 73.0277 149.938C71.375 140.701 66.5376 132.302 60.8035 124.985C54.9688 117.52 47.8523 110.736 39.5939 106.009C32.0707 101.692 23.1096 99.1123 14.4545 100.962C1.05432 103.833 -10.4453 120.031 -2.44744 133C-0.227312 136.59 3.08888 139.354 6.67548 141.508C10.56 143.836 14.9219 145.604 19.3992 146.361C28.0019 147.822 36.138 144.7 42.5979 139.063C56.1093 127.3 62.2061 108.205 62.3145 90.725C62.4321 72.5199 55.8415 54.9233 45.0347 40.3956C34.7079 26.4768 20.7546 15.2842 4.85622 8.33486C-10.5025 1.62492 -27.7755 -1.09907 -44.3511 1.88437C-48.3596 2.60692 -52.3351 3.67761 -56.1692 5.04026C-56.7396 5.24571 -56.4084 6.14295 -55.8303 5.92008C-40.3352 0.393925 -23.4157 0.439256 -7.64242 4.85294C8.26039 9.30328 22.8177 18.0545 34.4969 29.6763C46.8012 41.9088 56.1542 57.4588 59.72 74.5471C63.3788 91.9892 60.937 111.018 51.7112 126.412C47.4509 133.525 41.5059 140.162 33.8283 143.613C25.3735 147.407 16.2041 145.673 8.30566 141.356C1.21199 137.479 -4.95302 130.805 -4.13003 122.187C-3.46281 115.188 1.16732 108.885 6.95531 105.138C22.3223 95.1574 41.1159 106.101 52.4526 117.133C59.219 123.72 65.2512 131.586 69.0367 140.289C72.737 148.808 73.4382 157.935 71.8187 167.033C70.2764 175.769 66.9722 184.203 62.8902 192.042C58.9415 199.627 54.101 206.733 48.5059 213.192C37.4782 225.931 23.5425 236.255 7.94343 242.673C4.19448 244.22 0.366105 245.522 -3.54942 246.599C-4.06953 246.785 -3.73062 247.665 -3.14087 247.509Z" fill="#EAD1D0"/>
</svg>
