<svg width="99" height="383" viewBox="0 0 99 383" fill="none" xmlns="http://www.w3.org/2000/svg">
<path d="M22.5586 300.247C16.8766 302.331 11.4765 305.028 6.36832 308.227C5.61936 308.718 6.508 309.779 7.25696 309.288C12.2483 306.134 17.585 303.515 23.1502 301.477C23.9931 301.19 23.404 299.933 22.5586 300.247Z" fill="#EAD1D0"/>
<path d="M34.4707 311.021C32.714 317.297 30.4063 323.44 27.6137 329.342C27.2583 330.149 28.5658 330.633 28.9492 329.828C31.7418 323.926 34.0215 317.781 35.8062 311.507C36.0271 310.631 34.7195 310.148 34.4707 311.021Z" fill="#EAD1D0"/>
<path d="M19.8517 283.962C13.7355 282.171 7.64719 280.383 1.53097 278.592C0.680443 278.347 0.167623 279.643 1.04608 279.892C7.16229 281.682 13.2506 283.471 19.3668 285.261C20.2148 285.535 20.7276 284.238 19.8517 283.962Z" fill="#EAD1D0"/>
<path d="M197.73 -12.4606C170.016 -11.4258 142.87 -2.9645 118.988 10.9747C94.6437 25.1718 73.3187 45.2698 58.6041 69.3915C50.9657 81.9235 45.053 95.992 44.2579 110.786C43.4563 125.688 47.8918 140.456 54.1098 153.877C60.4295 167.564 68.9825 180.664 80.0524 190.997C90.1328 200.427 103.073 207.691 117.15 207.987C138.948 208.435 162.653 187.556 154.986 164.559C152.854 158.191 148.724 152.702 143.953 148.058C138.784 143.036 132.672 138.706 126.013 135.9C113.222 130.497 99.4847 132.36 87.4284 138.729C62.2223 152.007 45.831 179.343 39.3021 206.364C32.4949 234.505 36.2986 264.152 47.7487 290.588C58.6772 315.905 76.2142 338.326 98.3077 354.888C119.653 370.883 145.413 381.405 172.17 382.838C178.641 383.182 185.187 382.976 191.621 382.266C192.58 382.156 192.393 380.646 191.417 380.78C165.408 383.679 139.22 377.432 116.398 364.841C93.388 352.146 74.0272 333.284 60.1682 311.029C45.5636 287.6 36.737 260.113 37.433 232.356C38.1138 204.018 48.8202 175.451 68.7106 154.988C77.8974 145.53 89.5198 137.426 102.666 134.887C117.141 132.1 130.711 138.132 141.373 147.698C150.948 156.29 158.067 168.873 153.657 181.913C150.077 192.504 140.612 200.572 130.284 204.26C102.853 214.101 77.7285 190.299 64.1856 169.082C56.1032 156.415 49.6233 142.035 46.9277 127.18C44.2971 112.64 46.5326 98.2545 52.3516 84.7611C57.9194 71.7995 66.1059 59.9493 75.2804 49.3043C84.1563 39.0031 94.2389 29.769 105.255 21.8126C126.97 6.1163 152.309 -4.77886 178.804 -9.02003C185.173 -10.0454 191.576 -10.6645 198.032 -10.9016C198.905 -10.9998 198.7 -12.4856 197.73 -12.4606Z" fill="#EAD1D0"/>
</svg>
