<svg width="297" height="354" viewBox="0 0 297 354" fill="none" xmlns="http://www.w3.org/2000/svg">
<g clip-path="url(#clip0_5694_139)">
<path d="M62.646 0.535149C41.187 18.1049 24.6685 41.2484 14.0603 66.7851C3.23987 92.8065 -1.6096 121.706 1.23946 149.817C2.72462 164.418 6.51327 179.201 14.818 191.47C23.1833 203.829 35.6404 212.917 48.7037 219.854C62.0095 226.942 76.7398 232.213 91.8035 233.758C105.534 235.182 120.234 233.152 131.63 224.882C149.27 212.069 155.544 181.11 135.54 167.417C129.993 163.631 123.386 161.753 116.778 160.935C109.625 160.056 102.139 160.298 95.1375 162.086C81.6802 165.509 71.86 175.293 66.1012 187.653C54.0382 213.462 57.4934 245.148 68.6169 270.624C80.195 297.161 101.139 318.487 126.235 332.633C150.24 346.204 177.76 353.475 205.372 353.323C232.044 353.172 258.929 345.992 281.115 330.967C286.48 327.332 291.572 323.212 296.27 318.759C296.967 318.093 295.906 317.002 295.209 317.699C276.235 335.723 251.594 346.568 225.801 350.324C199.795 354.111 172.972 350.779 148.482 341.418C122.689 331.573 99.0474 315.003 82.8319 292.465C66.2528 269.473 57.5237 240.241 61.0093 211.917C62.6157 198.831 66.9802 185.35 75.9214 175.384C85.7719 164.418 100.229 161.026 114.505 162.207C127.326 163.267 140.601 168.992 144.966 182.049C148.512 192.651 145.845 204.798 139.844 213.977C123.931 238.393 89.5303 234.606 65.9194 225.882C51.8256 220.672 37.9743 213.129 26.8508 202.92C15.9698 192.924 9.05925 180.11 5.54338 165.842C2.14874 152.15 1.51225 137.761 2.39121 123.735C3.23987 110.164 5.69492 96.7143 9.66543 83.7187C17.4852 58.0911 31.0941 34.0994 49.6433 14.7121C54.0988 10.047 58.827 5.6849 63.828 1.59539C64.4645 0.989538 63.4037 -0.0707038 62.646 0.535149Z" fill="white"/>
</g>
<defs>
<clipPath id="clip0_5694_139">
<rect width="296" height="353" fill="white" transform="translate(0.421722 0.353516)"/>
</clipPath>
</defs>
</svg>
