<svg width="40" height="51" viewBox="0 0 40 51" fill="none" xmlns="http://www.w3.org/2000/svg">
<g clip-path="url(#clip0_174_59)">
<path d="M15.3137 30.3086C20.6912 27.5322 25.7124 24.1823 30.3812 20.3702C31.063 19.7893 30.0489 18.8477 29.3671 19.4286C24.8085 23.1811 19.8405 26.4456 14.5733 29.1624C13.7728 29.5522 14.5142 30.7262 15.3137 30.3086Z" fill="white"/>
<path d="M2.14992 21.1065C3.1094 14.6595 4.63228 8.27703 6.66629 2.07241C6.91818 1.22719 5.56052 0.910765 5.28061 1.75694C3.2466 7.96156 1.75174 14.3431 0.764237 20.791C0.654385 21.6872 2.01204 22.0036 2.14992 21.1065Z" fill="white"/>
<path d="M20.0323 46.1282C26.3242 47.1415 32.5881 48.1558 38.88 49.1691C39.7546 49.3067 40.1015 47.9563 39.1989 47.8196C32.907 46.8063 26.6431 45.792 20.3512 44.7787C19.4757 44.6133 19.1288 45.9637 20.0323 46.1282Z" fill="white"/>
</g>
<defs>
<clipPath id="clip0_174_59">
<rect x="0.106812" y="1.4585" width="38" height="49" rx="2" transform="rotate(-1.94609 0.106812 1.4585)" fill="white"/>
</clipPath>
</defs>
</svg>
