<svg width="59" height="62" viewBox="0 0 59 62" fill="none" xmlns="http://www.w3.org/2000/svg">
<g clip-path="url(#clip0_174_48)">
<path d="M30.5769 24.1976C27.3081 29.2907 24.6346 34.7024 22.4973 40.3382C22.1973 41.1822 23.5464 41.4906 23.8463 40.6466C25.9179 35.1175 28.5881 29.8064 31.7913 24.8199C32.2897 24.0821 31.0606 23.4361 30.5769 24.1976Z" fill="white"/>
<path d="M46.5781 25.5847C48.9707 31.6477 50.8431 37.9366 52.1839 44.3269C52.3884 45.1849 53.7223 44.7801 53.5417 43.9073C52.2009 37.5169 50.3047 31.243 47.9359 25.1651C47.583 24.3341 46.249 24.7389 46.5781 25.5847Z" fill="white"/>
<path d="M18.5806 12.8563C12.625 15.1247 6.69319 17.3783 0.737581 19.6467C-0.0886104 19.9648 0.286135 21.3078 1.13612 20.9748C7.09174 18.7064 13.0236 16.4529 18.9792 14.1845C19.8201 13.89 19.4454 12.547 18.5806 12.8563Z" fill="white"/>
</g>
<defs>
<clipPath id="clip0_174_48">
<rect x="58.1715" y="41.5789" width="38" height="49" rx="2" transform="rotate(148.054 58.1715 41.5789)" fill="white"/>
</clipPath>
</defs>
</svg>
