<svg width="353" height="297" viewBox="0 0 353 297" fill="none" xmlns="http://www.w3.org/2000/svg">
<path d="M352.79 62.2086C335.221 40.7497 312.077 24.2311 286.54 13.6229C260.519 2.80249 231.62 -2.04699 203.508 0.80208C188.907 2.28723 174.124 6.07588 161.856 14.3806C149.496 22.746 140.409 35.2031 133.472 48.2663C126.383 61.5721 121.112 76.3024 119.567 91.3661C118.144 105.096 120.173 119.796 128.443 131.192C141.257 148.832 172.216 155.106 185.908 135.102C189.695 129.556 191.573 122.948 192.391 116.341C193.269 109.188 193.027 101.702 191.24 94.7001C187.817 81.2428 178.032 71.4226 165.673 65.6638C139.863 53.6008 108.177 57.056 82.7012 68.1795C56.1649 79.7576 34.8388 100.701 20.6922 125.797C7.12109 149.802 -0.149147 177.323 0.00231038 204.935C0.153768 231.607 7.33312 258.491 22.3583 280.678C25.9934 286.042 30.1132 291.134 34.5662 295.832C35.2326 296.529 36.3232 295.468 35.6264 294.771C17.6023 275.798 6.75756 251.156 3.00127 225.363C-0.785287 199.358 2.5469 172.534 11.9073 148.044C21.7524 122.251 38.3225 98.61 60.8602 82.3945C83.8523 65.8154 113.085 57.0863 141.408 60.5719C154.495 62.1783 167.975 66.5428 177.941 75.484C188.907 85.3345 192.3 99.792 191.119 114.068C190.058 126.888 184.333 140.164 171.277 144.528C160.674 148.075 148.527 145.407 139.348 139.406C114.933 123.494 118.719 89.0929 127.443 65.482C132.654 51.3882 140.197 37.5369 150.405 26.4134C160.402 15.5324 173.216 8.62186 187.483 5.10599C201.176 1.71136 215.565 1.07486 229.59 1.95383C243.161 2.80249 256.611 5.25754 269.607 9.22805C295.234 17.0478 319.226 30.6567 338.613 49.2059C343.278 53.6614 347.641 58.3896 351.73 63.3907C352.336 64.0271 353.396 62.9663 352.79 62.2086Z" fill="white"/>
</svg>
