<svg width="182" height="397" viewBox="0 0 182 397" fill="none" xmlns="http://www.w3.org/2000/svg">
<path d="M44.6117 396.451C71.9806 391.965 97.8578 380.181 119.813 363.37C142.195 346.245 160.844 323.642 172.432 297.872C178.447 284.485 182.557 269.788 181.499 255.011C180.434 240.125 174.19 226.026 166.345 213.487C158.367 200.695 148.245 188.765 135.972 179.895C124.793 171.797 111.048 166.205 97.0436 167.669C75.36 169.946 54.4471 193.62 64.925 215.48C67.8352 221.533 72.6183 226.463 77.9315 230.475C83.6869 234.812 90.2915 238.345 97.2486 240.298C110.614 244.062 124.011 240.499 135.178 232.675C158.53 216.355 171.38 187.186 174.485 159.561C177.727 130.791 170.252 101.851 155.591 77.0512C141.588 53.2958 121.389 33.2392 97.4012 19.5645C74.2267 6.35962 47.3546 -0.865028 20.628 1.05395C14.1645 1.51969 7.69483 2.54156 1.3998 4.04902C0.462862 4.27761 0.836292 5.75245 1.78837 5.49762C27.232 -0.624933 53.9945 2.30394 78.2102 11.9475C102.625 21.6709 124.189 37.9685 140.717 58.3198C158.132 79.7425 170.321 105.913 173.095 133.539C175.957 161.74 168.901 191.421 151.72 214.207C143.786 224.737 133.266 234.229 120.539 238.389C106.526 242.961 92.3087 238.671 80.5363 230.51C69.9633 223.181 61.3291 211.585 64.0773 198.096C66.3075 187.141 74.691 177.954 84.4776 173.006C110.466 159.817 138.365 180.297 154.45 199.658C164.051 211.217 172.275 224.675 176.804 239.078C181.229 253.176 180.807 267.728 176.717 281.842C172.811 295.397 166.168 308.177 158.394 319.884C150.873 331.212 142.022 341.633 132.086 350.902C112.5 369.186 88.7186 383.159 62.9608 390.675C56.7698 392.487 50.4939 393.901 44.1182 394.942C43.264 395.148 43.6526 396.597 44.6117 396.451Z" fill="white"/>
</svg>
