<svg width="49" height="39" viewBox="0 0 49 39" fill="none" xmlns="http://www.w3.org/2000/svg">
<g clip-path="url(#clip0_174_78)">
<path d="M29.3498 24.16C26.7576 18.6913 23.5801 13.5592 19.9288 8.76365C19.3714 8.06254 18.3958 9.04409 18.9533 9.7452C22.5488 14.4286 25.6427 19.5046 28.1791 24.8611C28.5415 25.6744 29.74 24.9732 29.3498 24.16Z" fill="white"/>
<path d="M19.706 37.0038C13.2953 35.8259 6.96821 34.0872 0.836243 31.8436C6.50305e-05 31.5632 -0.362279 32.9093 0.473899 33.2178C6.60587 35.4614 12.9329 37.1721 19.3436 38.378C20.2356 38.5182 20.5979 37.1721 19.706 37.0038Z" fill="white"/>
<path d="M45.3206 19.9815C46.547 13.7276 47.7734 7.50176 48.9998 1.24788C49.1671 0.378511 47.8292 -0.0141086 47.6619 0.883308C46.4355 7.13718 45.2092 13.363 43.9828 19.6169C43.7876 20.4863 45.1255 20.8789 45.3206 19.9815Z" fill="white"/>
</g>
<defs>
<clipPath id="clip0_174_78">
<rect y="38.3784" width="38" height="49" rx="2" transform="rotate(-90 0 38.3784)" fill="white"/>
</clipPath>
</defs>
</svg>
