<svg width="39" height="50" viewBox="0 0 39 50" fill="none" xmlns="http://www.w3.org/2000/svg">
<g clip-path="url(#clip0_174_59)">
<path d="M15.1463 30.1486C20.6149 27.5565 25.7471 24.379 30.5426 20.7277C31.2437 20.1702 30.2622 19.1947 29.5611 19.7521C24.8777 23.3477 19.8017 26.4416 14.4452 28.978C13.6319 29.3403 14.333 30.5388 15.1463 30.1486Z" fill="white"/>
<path d="M2.30254 20.505C3.4804 14.0943 5.21915 7.76719 7.46269 1.63522C7.74313 0.799046 6.39701 0.436702 6.08852 1.27288C3.84498 7.40485 2.13428 13.7319 0.928372 20.1426C0.788151 21.0345 2.13428 21.3969 2.30254 20.505Z" fill="white"/>
<path d="M19.3249 46.1197C25.5787 47.3461 31.8046 48.5725 38.0585 49.7989C38.9278 49.9661 39.3204 48.6282 38.423 48.461C32.1692 47.2346 25.9433 46.0082 19.6894 44.7818C18.8201 44.5867 18.4275 45.9246 19.3249 46.1197Z" fill="white"/>
</g>
<defs>
<clipPath id="clip0_174_59">
<rect width="38" height="49" fill="white" transform="translate(0.927856 0.799072)"/>
</clipPath>
</defs>
</svg>
