<svg width="24" height="24" viewBox="0 0 24 24" fill="none" xmlns="http://www.w3.org/2000/svg">
<path d="M4.25889 16.5936C3.1407 14.7086 2.7491 12.4802 3.15762 10.327C3.56615 8.17366 4.74669 6.24356 6.47758 4.89909C8.20846 3.55462 10.3706 2.88826 12.558 3.02514C14.7455 3.16202 16.8077 4.09273 18.3575 5.6425C19.9072 7.19226 20.838 9.25448 20.9749 11.4419C21.1117 13.6293 20.4454 15.7915 19.1009 17.5224C17.7565 19.2533 15.8264 20.4338 13.6731 20.8424C11.5198 21.2509 9.29143 20.8593 7.40643 19.7411L7.40645 19.741L4.29802 20.6292C4.16942 20.6659 4.03332 20.6676 3.90385 20.634C3.77437 20.6005 3.65622 20.5329 3.56165 20.4384C3.46707 20.3438 3.3995 20.2256 3.36595 20.0961C3.3324 19.9667 3.33409 19.8306 3.37083 19.702L4.25896 16.5935L4.25889 16.5936Z" stroke="white" stroke-linecap="round" stroke-linejoin="round"/>
<mask id="path-2-outside-1_5455_204" maskUnits="userSpaceOnUse" x="6.99994" y="7" width="10" height="10" fill="black">
<rect fill="white" x="6.99994" y="7" width="10" height="10"/>
<path d="M13.9343 16C13.1547 16.0011 12.3825 15.8484 11.662 15.5505C10.9415 15.2527 10.2869 14.8156 9.7356 14.2643C9.18433 13.7131 8.74725 13.0584 8.44941 12.3379C8.15158 11.6174 7.99884 10.8453 7.99994 10.0657C8.00171 9.51689 8.22106 8.99124 8.60988 8.60399C8.99871 8.21675 9.52525 7.99953 10.074 8C10.164 8 10.2524 8.0238 10.3303 8.06897C10.4081 8.11415 10.4727 8.17911 10.5173 8.25726L11.3833 9.77276C11.4355 9.86416 11.4625 9.96781 11.4614 10.0731C11.4602 10.1783 11.4311 10.2814 11.3769 10.3717L10.6815 11.5308C11.0393 12.3249 11.6751 12.9607 12.4691 13.3185L13.6283 12.623C13.7185 12.5688 13.8216 12.5397 13.9269 12.5386C14.0321 12.5375 14.1358 12.5644 14.2272 12.6166L15.7427 13.4826C15.8208 13.5273 15.8858 13.5918 15.931 13.6697C15.9761 13.7475 15.9999 13.8359 15.9999 13.9259C15.9984 14.4741 15.7805 14.9994 15.3937 15.3878C15.0069 15.7762 14.4824 15.9962 13.9343 16Z"/>
</mask>
<path d="M13.9343 16C13.1547 16.0011 12.3825 15.8484 11.662 15.5505C10.9415 15.2527 10.2869 14.8156 9.7356 14.2643C9.18433 13.7131 8.74725 13.0584 8.44941 12.3379C8.15158 11.6174 7.99884 10.8453 7.99994 10.0657C8.00171 9.51689 8.22106 8.99124 8.60988 8.60399C8.99871 8.21675 9.52525 7.99953 10.074 8C10.164 8 10.2524 8.0238 10.3303 8.06897C10.4081 8.11415 10.4727 8.17911 10.5173 8.25726L11.3833 9.77276C11.4355 9.86416 11.4625 9.96781 11.4614 10.0731C11.4602 10.1783 11.4311 10.2814 11.3769 10.3717L10.6815 11.5308C11.0393 12.3249 11.6751 12.9607 12.4691 13.3185L13.6283 12.623C13.7185 12.5688 13.8216 12.5397 13.9269 12.5386C14.0321 12.5375 14.1358 12.5644 14.2272 12.6166L15.7427 13.4826C15.8208 13.5273 15.8858 13.5918 15.931 13.6697C15.9761 13.7475 15.9999 13.8359 15.9999 13.9259C15.9984 14.4741 15.7805 14.9994 15.3937 15.3878C15.0069 15.7762 14.4824 15.9962 13.9343 16Z" stroke="white" stroke-width="2" stroke-linecap="round" stroke-linejoin="round" mask="url(#path-2-outside-1_5455_204)"/>
</svg>
