<svg width="60" height="60" viewBox="0 0 60 60" fill="none" xmlns="http://www.w3.org/2000/svg">
<path d="M29.9995 59.9868C46.561 59.9868 59.9868 46.561 59.9868 29.9995C59.9868 13.4381 46.561 0.0123291 29.9995 0.0123291C13.4381 0.0123291 0.0123291 13.4381 0.0123291 29.9995C0.0123291 46.561 13.4381 59.9868 29.9995 59.9868Z" fill="#C3D6EA"/>
<path d="M30 50.4772C41.3093 50.4772 50.4772 41.3092 50.4772 30C50.4772 18.6907 41.3093 9.52277 30 9.52277C18.6908 9.52277 9.5228 18.6907 9.5228 30C9.5228 41.3092 18.6908 50.4772 30 50.4772Z" stroke="#961914" stroke-width="0.5" stroke-miterlimit="10"/>
<path d="M32.7866 2.51813L35.9566 3.01664L35.8799 3.52793L33.3106 3.11889L33.1061 4.32043L34.4099 4.52494C34.9084 4.60164 35.2663 4.76781 35.4964 5.02345C35.7265 5.26632 35.8032 5.58587 35.7393 5.98212C35.6754 6.39116 35.4836 6.68515 35.1641 6.8641C34.8445 7.04305 34.4227 7.0814 33.8986 7.00471L32.0963 6.7235L32.7866 2.51813ZM33.9753 6.53176C34.3204 6.58289 34.5889 6.55733 34.7934 6.45507C34.9979 6.35281 35.1129 6.17386 35.1513 5.91821C35.228 5.40692 34.9212 5.10015 34.2182 4.98511L33.0422 4.79337L32.7993 6.32725L33.9753 6.53176Z" fill="#961914"/>
<path d="M39.6379 5.5603C39.7913 5.84151 39.7913 6.18663 39.6506 6.59566L39.0115 8.42353L38.4875 8.24458L38.6281 7.84832C38.4875 7.96337 38.3213 8.01449 38.1168 8.04006C37.925 8.05284 37.7077 8.02728 37.4777 7.9378C37.1453 7.82276 36.8897 7.64381 36.7491 7.40095C36.5957 7.17086 36.5701 6.91522 36.6724 6.64679C36.7619 6.37836 36.9408 6.19941 37.1965 6.10994C37.4521 6.02046 37.7844 6.04602 38.2062 6.18663L39.0754 6.4934L39.1138 6.39115C39.1905 6.14828 39.1905 5.94377 39.101 5.7776C39.0115 5.59864 38.8326 5.47082 38.5642 5.38135C38.3852 5.31743 38.1935 5.27909 38.0017 5.27909C37.81 5.27909 37.631 5.30465 37.4777 5.36856L37.3882 4.88284C37.5927 4.80614 37.81 4.78058 38.0529 4.79336C38.2957 4.80614 38.5386 4.84449 38.7815 4.93397C39.2033 5.06179 39.4845 5.27909 39.6379 5.5603ZM38.3085 7.59268C38.5002 7.55433 38.6536 7.45207 38.7815 7.31147L38.9348 6.88965L38.0912 6.59566C37.631 6.42949 37.3371 6.50619 37.2348 6.82574C37.1837 6.97913 37.1965 7.11974 37.2859 7.24756C37.3754 7.37538 37.516 7.47764 37.7333 7.55433C37.925 7.61824 38.1296 7.63103 38.3085 7.59268Z" fill="#961914"/>
<path d="M43.8816 7.52877C44.035 7.77163 44.0989 8.02727 44.0989 8.32127C44.0989 8.60248 44.0222 8.88369 43.856 9.1649C43.6898 9.44611 43.4981 9.66341 43.2552 9.81679C43.0124 9.97018 42.7439 10.0341 42.4627 10.0341C42.1815 10.0341 41.9003 9.9574 41.6319 9.80401C41.4274 9.68897 41.274 9.54837 41.1462 9.3822C41.0183 9.21603 40.9416 9.01151 40.9033 8.80699L40.0852 10.2514L39.5739 9.97018L41.7214 6.1355L42.2071 6.40393L41.9642 6.85131C42.1687 6.76183 42.3733 6.72348 42.5906 6.73626C42.8079 6.74905 43.0252 6.82574 43.2297 6.94078C43.5237 7.09417 43.7282 7.29868 43.8816 7.52877ZM42.4116 9.48445C42.6033 9.48445 42.7823 9.43332 42.9485 9.33107C43.1146 9.22881 43.2552 9.07542 43.3575 8.88369C43.4598 8.69195 43.5237 8.50022 43.5237 8.2957C43.5237 8.09119 43.4725 7.92502 43.3831 7.75885C43.2808 7.59268 43.1402 7.46485 42.9612 7.3626C42.7823 7.26034 42.6033 7.20921 42.4116 7.22199C42.2199 7.23477 42.0409 7.27312 41.8748 7.37538C41.7086 7.47764 41.568 7.61824 41.4657 7.82276C41.3635 8.01449 41.2996 8.20623 41.2996 8.41074C41.2996 8.60248 41.3507 8.78143 41.4402 8.9476C41.5424 9.11377 41.6702 9.24159 41.8492 9.34385C42.0281 9.43332 42.2199 9.48445 42.4116 9.48445Z" fill="#961914"/>
<path d="M47.4734 10.3409C47.5117 10.6604 47.3967 10.9928 47.1283 11.3251L45.8884 12.8206L45.4666 12.4755L45.735 12.1432C45.5688 12.1943 45.3899 12.1943 45.1982 12.1432C45.0064 12.0921 44.8147 11.9898 44.623 11.8236C44.3417 11.5935 44.1756 11.3379 44.1244 11.0695C44.0733 10.801 44.1244 10.5582 44.3034 10.3281C44.4823 10.1108 44.7124 9.99576 44.9809 9.99576C45.2493 9.99576 45.5561 10.1364 45.9012 10.4176L46.617 11.0056L46.6937 10.9161C46.8471 10.7243 46.9238 10.5326 46.8854 10.3281C46.8471 10.1236 46.732 9.94463 46.5147 9.76568C46.3613 9.65064 46.208 9.54838 46.029 9.48447C45.85 9.42056 45.6711 9.38221 45.5177 9.38221L45.6072 8.89648C45.8245 8.89648 46.0418 8.94761 46.2591 9.03709C46.4764 9.12657 46.6937 9.25439 46.8982 9.42056C47.2305 9.72733 47.4223 10.0213 47.4734 10.3409ZM45.5177 11.7981C45.7094 11.8236 45.8884 11.7853 46.0546 11.6958L46.3358 11.3507L45.6455 10.7755C45.2621 10.4559 44.9681 10.4304 44.7636 10.686C44.6613 10.8138 44.6229 10.9544 44.6613 11.1078C44.6996 11.2612 44.8019 11.4018 44.9809 11.5424C45.1598 11.683 45.3388 11.7725 45.5177 11.7981Z" fill="#961914"/>
<path d="M49.2757 11.6447L49.6592 12.092L48.6238 12.974L49.8126 14.3673L50.8479 13.4853L51.2314 13.9327L48.79 16.0162L48.4065 15.5688L49.4291 14.6996L48.2403 13.3064L47.2178 14.1755L46.8343 13.7282L49.2757 11.6447Z" fill="#961914"/>
<path d="M52.369 15.556L52.663 16.0673L50.6306 17.2305L53.6472 17.7929L53.9029 18.2531L51.1035 19.8381L50.8223 19.3268L52.8547 18.1636L49.8509 17.614L49.5825 17.1538L52.369 15.556Z" fill="#961914"/>
<path d="M54.6954 20.0043L54.8871 20.5539L53.5961 21.0013L54.1969 22.7397L55.4879 22.2923L55.6796 22.8419L52.6374 23.8901L52.4457 23.3404L53.7239 22.9058L53.1359 21.1675L51.8577 21.6021L51.666 21.0524L54.6954 20.0043Z" fill="#961914"/>
<path d="M56.1525 26.9578C55.9736 27.2262 55.6668 27.3924 55.245 27.4563L53.3277 27.7503L53.2382 27.2007L53.66 27.1368C53.4938 27.0601 53.366 26.945 53.251 26.7789C53.1487 26.6127 53.072 26.4082 53.0337 26.1653C52.9825 25.8074 53.0209 25.5134 53.1615 25.2706C53.3021 25.0277 53.5066 24.8871 53.7878 24.8487C54.069 24.8104 54.3119 24.8743 54.5164 25.0533C54.7209 25.2322 54.8488 25.539 54.9255 25.9864L55.0661 26.8939L55.1811 26.8811C55.424 26.8428 55.6029 26.7405 55.718 26.5744C55.8202 26.4082 55.8586 26.1909 55.8202 25.9097C55.7946 25.7179 55.7307 25.539 55.6413 25.3728C55.5518 25.2066 55.4495 25.066 55.3217 24.951L55.718 24.6442C55.8713 24.7848 56.0119 24.9638 56.1142 25.1811C56.2165 25.3984 56.2932 25.6285 56.3315 25.8841C56.3954 26.3315 56.3315 26.6894 56.1525 26.9578ZM53.7367 26.7405C53.8645 26.8811 54.0179 26.9834 54.2096 27.0217L54.657 26.9578L54.5164 26.0758C54.4397 25.5901 54.2352 25.3728 53.9157 25.4239C53.7623 25.4495 53.6344 25.5262 53.5705 25.6668C53.4938 25.8074 53.4811 25.9864 53.5066 26.2037C53.5322 26.421 53.6217 26.5999 53.7367 26.7405Z" fill="#961914"/>
<path d="M58.4023 32.6204L58.3639 33.1445L52.7908 30.7797L52.8292 30.2557L58.4023 32.6204Z" fill="#961914"/>
<path d="M54.1713 37.4009L54.4269 36.5573L52.6374 36.0205L52.8036 35.4453L56.8811 36.6468L56.715 37.222L54.951 36.6979L54.6954 37.5543L56.0886 39.3566L55.9097 39.983L54.363 37.9506L51.8066 38.8581L51.9983 38.1934L54.1713 37.4009Z" fill="#961914"/>
<path d="M52.8803 43.3192C52.6374 43.4725 52.3818 43.5492 52.1006 43.562C51.8194 43.5748 51.5382 43.4981 51.2442 43.3447C50.963 43.1913 50.7329 42.9996 50.5795 42.7567C50.4261 42.5139 50.3494 42.2582 50.3366 41.977C50.3366 41.6958 50.4005 41.4146 50.5411 41.1462C50.6434 40.9417 50.784 40.7755 50.9502 40.6477C51.1164 40.5198 51.3081 40.4432 51.5254 40.392L50.0554 39.6123L50.3238 39.101L54.2097 41.159L53.954 41.6575L53.5066 41.4146C53.6089 41.6063 53.6472 41.8236 53.6345 42.0409C53.6217 42.2582 53.5578 42.4755 53.4427 42.68C53.3021 42.9485 53.1104 43.1658 52.8803 43.3192ZM50.8863 41.8875C50.8991 42.0793 50.9502 42.2582 51.0524 42.4244C51.1547 42.5906 51.3081 42.7184 51.5126 42.8206C51.7043 42.9229 51.9088 42.974 52.1006 42.974C52.2923 42.974 52.4713 42.9229 52.6374 42.8206C52.7908 42.7184 52.9187 42.5778 53.0209 42.3988C53.1104 42.2199 53.1615 42.0409 53.1487 41.8492C53.136 41.6575 53.0848 41.4785 52.9826 41.3251C52.8803 41.159 52.7269 41.0311 52.5352 40.9289C52.3434 40.8266 52.1389 40.7755 51.9472 40.7755C51.7555 40.7755 51.5765 40.8266 51.4103 40.9289C51.2442 41.0311 51.1163 41.1717 51.0269 41.3507C50.9246 41.5169 50.8863 41.7086 50.8863 41.8875Z" fill="#961914"/>
<path d="M49.0201 43.9838C49.2885 43.8688 49.5697 43.8432 49.8509 43.8816C50.1321 43.9199 50.4005 44.0477 50.6434 44.2395C50.8863 44.4312 51.0652 44.6613 51.1675 44.9297C51.2697 45.1981 51.3081 45.4793 51.257 45.7605C51.2058 46.0418 51.0908 46.3102 50.8863 46.5658C50.6945 46.8215 50.4517 47.0004 50.196 47.1155C49.9276 47.2305 49.6592 47.2561 49.3652 47.2177C49.084 47.1794 48.8155 47.0516 48.5727 46.8598C48.3298 46.6681 48.1509 46.438 48.0486 46.1696C47.9464 45.9011 47.908 45.6199 47.9591 45.3387C48.0103 45.0575 48.1253 44.7891 48.3298 44.5334C48.5216 44.2778 48.7516 44.0988 49.0201 43.9838ZM48.4832 45.3643C48.4576 45.556 48.4832 45.735 48.5599 45.9139C48.6366 46.0929 48.7644 46.2463 48.9306 46.3869C49.0968 46.5275 49.2885 46.617 49.4802 46.6425C49.672 46.6681 49.8509 46.6553 50.0299 46.5914C50.2088 46.5147 50.3494 46.3997 50.4772 46.2463C50.6051 46.0801 50.6818 45.9139 50.7073 45.7222C50.7329 45.5305 50.7201 45.3515 50.6434 45.1726C50.5667 44.9936 50.4389 44.8274 50.2727 44.6996C50.0938 44.559 49.9148 44.4695 49.7231 44.444C49.5314 44.4184 49.3396 44.4312 49.1734 44.4951C48.9945 44.559 48.8411 44.6741 48.7133 44.8402C48.5982 45.0064 48.5088 45.1853 48.4832 45.3643Z" fill="#961914"/>
<path d="M46.617 50.8479L44.4823 48.4448L44.9169 48.0613L46.7064 50.0937L47.7418 49.1734L47.2944 48.611C47.026 48.2786 46.8087 47.9719 46.6681 47.729C46.5147 47.4734 46.438 47.2433 46.4125 47.026C46.3997 46.8087 46.4764 46.6297 46.6425 46.4763C46.7192 46.4124 46.8215 46.3357 46.9493 46.2846L47.2433 46.6809C47.1922 46.7064 47.1538 46.732 47.1155 46.7576C46.9877 46.8598 46.9493 47.0004 46.9877 47.1538C47.026 47.3072 47.0899 47.4734 47.205 47.6395C47.32 47.8057 47.4862 48.023 47.7035 48.3042L48.4448 49.2373L46.617 50.8479Z" fill="#961914"/>
<path d="M45.0575 52.0239L44.559 52.3179L43.3575 50.3111L42.8718 53.3277L42.4244 53.5961L40.7755 50.8351L41.274 50.5411L42.4755 52.548L42.9613 49.5313L43.4214 49.2501L45.0575 52.0239Z" fill="#961914"/>
<path d="M38.807 53.1487L39.4333 52.9059L38.9476 51.6404L39.4845 51.4359L40.6349 54.4397L40.0852 54.6443L39.5995 53.3788L38.9604 53.6217L38.4747 55.2578L37.8867 55.4751L38.4747 53.5961L36.6596 52.4968L37.2987 52.254L38.807 53.1487Z" fill="#961914"/>
<path d="M27.239 57.5586L24.069 57.0473L24.1585 56.536L26.7277 56.9451L26.9195 55.7435L25.6157 55.539C25.1172 55.4623 24.7593 55.2961 24.5292 55.0405C24.2991 54.7976 24.2224 54.4653 24.2863 54.0818C24.3502 53.6728 24.542 53.3788 24.8615 53.1998C25.1811 53.0209 25.6029 52.9825 26.1142 53.0592L27.9165 53.3405L27.239 57.5586ZM26.0631 53.545C25.7179 53.4938 25.4495 53.5194 25.245 53.6217C25.0405 53.7239 24.9254 53.9029 24.8871 54.1585C24.8104 54.6698 25.1172 54.9766 25.8202 55.0916L26.9962 55.2834L27.239 53.7495L26.0631 53.545Z" fill="#961914"/>
<path d="M20.4005 54.5037C20.2471 54.2225 20.2471 53.8773 20.3878 53.4683L21.0269 51.6404L21.5509 51.8194L21.4103 52.2156C21.5509 52.1006 21.7171 52.0495 21.9216 52.0239C22.1134 52.0111 22.3307 52.0367 22.5607 52.1262C22.9059 52.2412 23.1487 52.4202 23.2893 52.663C23.4299 52.8931 23.4555 53.1487 23.366 53.4172C23.2765 53.6856 23.0976 53.8646 22.8419 53.954C22.5863 54.0435 22.254 54.0179 21.8321 53.8773L20.963 53.5706L20.9246 53.6856C20.8479 53.9157 20.8479 54.133 20.9374 54.2992C21.0269 54.4781 21.2058 54.6059 21.4742 54.6954C21.6532 54.7593 21.8449 54.7849 22.0367 54.7977C22.2284 54.7977 22.4074 54.7721 22.5607 54.7082L22.6502 55.2067C22.4457 55.2706 22.2284 55.309 21.9855 55.2962C21.7427 55.2834 21.4998 55.245 21.2569 55.1556C20.8351 55.0022 20.5411 54.7849 20.4005 54.5037ZM21.7299 52.4713C21.5509 52.5096 21.3848 52.5991 21.2569 52.7525L21.1036 53.1743L21.9472 53.4683C22.4074 53.6345 22.7013 53.5578 22.8036 53.251C22.8547 53.0976 22.8419 52.957 22.7525 52.8292C22.663 52.7014 22.5224 52.5991 22.3051 52.5224C22.1134 52.4457 21.9088 52.4329 21.7299 52.4713Z" fill="#961914"/>
<path d="M16.1568 52.5224C16.0034 52.2795 15.9395 52.0239 15.9395 51.7299C15.9395 51.4359 16.0162 51.1675 16.1824 50.8862C16.3358 50.605 16.5403 50.3877 16.7831 50.2343C17.026 50.081 17.2944 50.017 17.5756 50.017C17.8569 50.017 18.1381 50.0937 18.4065 50.2471C18.611 50.3622 18.7644 50.5028 18.8922 50.6689C19.02 50.8351 19.0967 51.0396 19.1223 51.2441L19.9404 49.7997L20.4517 50.081L18.2915 53.9029L17.8057 53.6344L18.0614 53.1871C17.8569 53.2765 17.6523 53.3149 17.435 53.2893C17.2177 53.2765 17.0004 53.1998 16.7959 53.0848C16.5147 52.957 16.2974 52.7652 16.1568 52.5224ZM17.6396 50.5795C17.4478 50.5795 17.2689 50.6306 17.1027 50.7328C16.9365 50.8351 16.7959 50.9885 16.6937 51.1802C16.5786 51.372 16.5275 51.5637 16.5275 51.7682C16.5275 51.96 16.5786 52.1389 16.6681 52.3051C16.7704 52.4712 16.8982 52.5991 17.0771 52.7013C17.2561 52.8036 17.435 52.8547 17.6268 52.8419C17.8185 52.8291 17.9975 52.7908 18.1636 52.6885C18.3298 52.5863 18.4704 52.4457 18.5727 52.2412C18.6877 52.0494 18.7388 51.8577 18.7388 51.6532C18.7388 51.4614 18.7005 51.2825 18.5982 51.1163C18.496 50.9502 18.3681 50.8223 18.1892 50.7201C18.0102 50.6178 17.8185 50.5667 17.6396 50.5795Z" fill="#961914"/>
<path d="M12.5778 49.7103C12.5394 49.3907 12.6545 49.0584 12.9229 48.7261L14.1628 47.2305L14.5846 47.5884L14.3162 47.9208C14.4823 47.8696 14.6613 47.8696 14.853 47.9208C15.0448 47.9719 15.2237 48.0742 15.4154 48.2403C15.6967 48.4704 15.8628 48.7261 15.914 48.9945C15.9651 49.2629 15.914 49.5186 15.7222 49.7359C15.5433 49.9532 15.3132 50.0682 15.0448 50.0682C14.7763 50.0682 14.4696 49.9276 14.1244 49.6464L13.4086 49.0584L13.3319 49.1479C13.1785 49.3396 13.1019 49.5313 13.1274 49.7359C13.153 49.9276 13.2808 50.1193 13.4981 50.2983C13.6515 50.4133 13.8049 50.5156 13.9838 50.5795C14.1628 50.6434 14.3417 50.6817 14.4951 50.6817L14.4056 51.1675C14.1883 51.1675 13.971 51.1163 13.7537 51.0269C13.5364 50.9374 13.3191 50.8096 13.1146 50.6434C12.8079 50.3238 12.6161 50.0298 12.5778 49.7103ZM14.5207 48.2531C14.3289 48.2275 14.15 48.2531 13.9838 48.3554L13.7026 48.7005L14.3929 49.2757C14.7763 49.5953 15.0703 49.6208 15.2748 49.3652C15.3771 49.2373 15.4154 49.0967 15.3771 48.9561C15.3387 48.8155 15.2365 48.6621 15.0575 48.5215C14.8914 48.3682 14.7124 48.2915 14.5207 48.2531Z" fill="#961914"/>
<path d="M10.7627 48.4065L10.3792 47.9591L11.4146 47.0772L10.2258 45.6839L9.20326 46.5659L8.81979 46.1185L11.274 44.035L11.6447 44.4824L10.6221 45.3515L11.8108 46.7448L12.8334 45.8756L13.2169 46.323L10.7627 48.4065Z" fill="#961914"/>
<path d="M7.69494 44.5207L7.40095 44.0094L9.43333 42.8462L6.41672 42.2966L6.16107 41.8364L8.96039 40.2386L9.2416 40.7499L7.20922 41.9131L10.2258 42.4628L10.4943 42.9229L7.69494 44.5207Z" fill="#961914"/>
<path d="M5.36858 40.0341L5.17684 39.4845L6.46785 39.0371L5.87987 37.3115L4.58886 37.7461L4.39713 37.1964L7.43931 36.1611L7.63104 36.7107L6.35281 37.1453L6.9408 38.8837L8.21902 38.4491L8.41076 38.9987L5.36858 40.0341Z" fill="#961914"/>
<path d="M3.9114 33.1189C4.09036 32.8504 4.39713 32.6843 4.81895 32.6203L6.73629 32.3264L6.82576 32.876L6.40395 32.9399C6.57012 33.0166 6.69794 33.1316 6.81298 33.2978C6.91524 33.464 6.99193 33.6685 7.03028 33.9114C7.08141 34.2693 7.04306 34.5633 6.90246 34.8061C6.76185 35.049 6.55733 35.1896 6.27612 35.2279C5.99491 35.2663 5.75205 35.2024 5.54754 35.0234C5.34302 34.8445 5.2152 34.5377 5.1385 34.0903L4.9979 33.1828L4.88286 33.1955C4.63999 33.2339 4.46104 33.3362 4.35878 33.5023C4.25653 33.6685 4.21818 33.8858 4.25652 34.167C4.28209 34.3587 4.346 34.5377 4.43548 34.7039C4.52495 34.87 4.62721 35.0106 4.75503 35.1257L4.35878 35.4324C4.2054 35.2918 4.06479 35.1129 3.96253 34.8956C3.86027 34.6783 3.78358 34.4482 3.74523 34.1926C3.68132 33.7452 3.73245 33.3873 3.9114 33.1189ZM6.34004 33.3362C6.21221 33.1955 6.05883 33.0933 5.86709 33.0549L5.41971 33.1189L5.56032 34.0008C5.63701 34.4866 5.84153 34.7039 6.16108 34.6527C6.32725 34.6272 6.44229 34.5505 6.50621 34.4099C6.57012 34.2693 6.59568 34.0903 6.55734 33.873C6.53177 33.6557 6.45508 33.4768 6.34004 33.3362Z" fill="#961914"/>
<path d="M1.6745 27.418L1.71285 26.8939L7.28592 29.2714L7.24757 29.7827L1.6745 27.418Z" fill="#961914"/>
<path d="M5.931 22.599L5.67536 23.4555L7.46488 23.9795L7.29871 24.5547L3.22116 23.3532L3.38733 22.778L5.15128 23.3021L5.40693 22.4457L4.01366 20.6434L4.19261 20.017L5.73927 22.0622L8.29572 21.1547L8.10399 21.8193L5.931 22.599Z" fill="#961914"/>
<path d="M7.19644 16.7576C7.43931 16.6042 7.69495 16.5275 7.97616 16.5147C8.25737 16.502 8.53858 16.5787 8.83257 16.732C9.11378 16.8854 9.34386 17.0772 9.49725 17.32C9.65064 17.5629 9.72733 17.8185 9.74012 18.0997C9.74012 18.381 9.6762 18.6622 9.5356 18.9434C9.43334 19.1479 9.29274 19.3141 9.12657 19.4419C8.9604 19.5697 8.76866 19.6592 8.55136 19.6975L10.0213 20.4772L9.7529 20.9885L5.84152 18.9178L6.10995 18.4193L6.55733 18.6622C6.45507 18.4576 6.41672 18.2531 6.42951 18.0358C6.44229 17.8185 6.5062 17.6012 6.62124 17.3967C6.76185 17.1283 6.95358 16.911 7.19644 16.7576ZM9.1777 18.1892C9.1777 17.9975 9.11378 17.8185 9.01153 17.6651C8.90927 17.499 8.75588 17.3712 8.55136 17.2561C8.35963 17.1539 8.15511 17.1027 7.96338 17.1027C7.77165 17.1027 7.59269 17.1539 7.42652 17.2561C7.27314 17.3584 7.14531 17.499 7.04306 17.6779C6.95358 17.8569 6.90245 18.0358 6.91523 18.2276C6.92801 18.4193 6.97914 18.5983 7.0814 18.7644C7.18366 18.9306 7.33705 19.0584 7.54156 19.1607C7.7333 19.2629 7.93781 19.3141 8.12955 19.3141C8.32128 19.3141 8.50024 19.2629 8.6664 19.1607C8.81979 19.0584 8.94761 18.9178 9.04987 18.7389C9.13935 18.5599 9.19048 18.381 9.1777 18.1892Z" fill="#961914"/>
<path d="M11.0695 16.0673C10.801 16.1824 10.5198 16.2079 10.2386 16.1696C9.95741 16.1313 9.68898 16.0034 9.44612 15.8117C9.20325 15.62 9.0243 15.3899 8.92205 15.1215C8.81979 14.853 8.79422 14.5718 8.83257 14.2906C8.8837 14.0094 9.01152 13.741 9.20325 13.4853C9.40777 13.2297 9.63785 13.0507 9.90628 12.9485C10.1747 12.8334 10.4431 12.8079 10.7371 12.8462C11.0311 12.8846 11.2868 13.0124 11.5296 13.2041C11.7725 13.3958 11.9514 13.6259 12.0537 13.8944C12.156 14.1628 12.1815 14.444 12.1432 14.7252C12.1048 15.0064 11.977 15.2748 11.7725 15.5305C11.568 15.7734 11.3379 15.9523 11.0695 16.0673ZM11.6063 14.6869C11.6319 14.4951 11.6063 14.3162 11.5296 14.1372C11.4529 13.9583 11.3251 13.7921 11.1589 13.6643C10.9928 13.5237 10.801 13.4342 10.6093 13.4086C10.4176 13.3575 10.2258 13.3831 10.0597 13.447C9.88072 13.5237 9.74011 13.6387 9.59951 13.7921C9.47168 13.9583 9.39499 14.1244 9.36942 14.3162C9.34386 14.4951 9.36942 14.6869 9.43334 14.8658C9.51003 15.0448 9.63785 15.2109 9.80402 15.3515C9.98297 15.4921 10.1619 15.5688 10.3537 15.6072C10.5454 15.6455 10.7371 15.62 10.9033 15.5561C11.0822 15.4921 11.2356 15.3771 11.3635 15.2109C11.4913 15.0448 11.5808 14.8658 11.6063 14.6869Z" fill="#961914"/>
<path d="M13.4853 9.20325L15.6072 11.6191L15.1726 12.0026L13.3831 9.97018L12.3477 10.8777L12.7823 11.4401C13.0507 11.7853 13.268 12.0793 13.4086 12.3349C13.5492 12.5905 13.6387 12.8206 13.6643 13.0379C13.6771 13.2552 13.6004 13.4342 13.4342 13.5876C13.3575 13.6515 13.2552 13.7282 13.1274 13.7793L12.8334 13.3831C12.8846 13.3575 12.9229 13.3319 12.9613 13.2936C13.0763 13.1913 13.1274 13.0507 13.0891 12.8973C13.0507 12.7439 12.9868 12.5778 12.8718 12.4116C12.7567 12.271 12.5906 12.0409 12.3733 11.7597L11.6319 10.8266L13.4853 9.20325Z" fill="#961914"/>
<path d="M15.0576 8.04008L15.5561 7.74609L16.7576 9.7529L17.2433 6.72351L17.6907 6.45508L19.3396 9.21605L18.8411 9.51004L17.6396 7.50322L17.1538 10.5198L16.6937 10.7883L15.0576 8.04008Z" fill="#961914"/>
<path d="M21.2953 6.91524L20.669 7.1581L21.1547 8.42355L20.6051 8.62807L19.4674 5.62423L20.0171 5.41971L20.5028 6.68516L21.1419 6.4423L21.6404 4.80617L22.2284 4.58887L21.6404 6.46786L23.4555 7.56714L22.8164 7.81L21.2953 6.91524Z" fill="#961914"/>
<path d="M43.0379 22.8931L42.2454 22.5991C41.0055 22.1389 39.6251 22.2923 38.5258 23.0209L31.4572 21.7682C30.9587 21.6788 30.4985 21.9344 30.294 22.3818C30.0895 22.8419 30.2173 23.3532 30.6136 23.66C31.6361 24.4653 32.8377 24.9894 34.1031 25.1939L31.6361 26.0886C31.1632 26.2548 30.882 26.715 30.9331 27.2135C30.9842 27.712 31.3549 28.0955 31.8407 28.1594C33.7197 28.4278 35.6498 27.9804 37.2348 26.9323C37.3243 27.1751 37.4521 27.4052 37.6055 27.6353C37.6182 27.6481 37.631 27.6609 37.6438 27.6736L34.6016 29.8083C33.937 30.2684 33.4001 30.8692 33.0038 31.5722C32.9016 31.7512 32.9655 31.9813 33.1445 32.0835C33.2723 32.1602 33.4384 32.1474 33.5535 32.058C33.6046 32.0324 33.643 31.9813 33.6685 31.9301C34.0136 31.3294 34.4738 30.8181 35.0362 30.4218L38.1679 28.2361C39.2672 29.182 40.9161 29.297 42.1687 28.4278L43.562 27.4436C44.1372 28.5045 44.3929 29.6932 44.3034 30.8948L44.0861 30.5752C43.971 30.4091 43.7282 30.3579 43.562 30.4857C43.3958 30.6008 43.3447 30.8436 43.4725 31.0098L44.9169 33.0678C45.032 33.2339 45.2748 33.2851 45.441 33.1572C45.9523 32.7993 46.6298 32.8377 47.0899 33.2084L45.2748 34.4738L42.5011 32.0835C42.3477 31.9429 42.1048 31.9685 41.9642 32.1219C41.8236 32.2753 41.8492 32.5181 42.0026 32.6587L43.3575 33.8347C43.153 34.167 42.9101 34.4866 42.6545 34.7678C42.3221 34.7422 41.9898 34.7934 41.683 34.9212C41.5808 34.7039 41.4401 34.4994 41.2868 34.3076C40.3281 33.1828 38.6664 32.9399 37.4904 33.758C36.8385 34.2182 36.3911 34.8828 36.2378 35.6498C36.0844 36.4295 36.2378 37.2092 36.6979 37.8611C36.9791 38.2702 37.3498 38.5769 37.7589 38.7814C36.2889 38.807 34.8317 38.1168 33.9242 36.8258C33.5407 36.2761 33.2851 35.6498 33.1572 34.9851C33.1189 34.7806 32.9272 34.64 32.7226 34.6783C32.5181 34.7167 32.3775 34.9084 32.4159 35.1129C32.5565 35.8799 32.8505 36.6085 33.2978 37.2476C33.5279 37.5799 33.7963 37.8867 34.0903 38.1423C33.4512 38.8581 33.349 39.9446 33.9242 40.7627C34.5888 41.7214 35.9054 41.9514 36.8641 41.2868C37.4393 40.8777 37.7716 40.2131 37.7589 39.5228C38.7942 39.51 39.8424 39.1905 40.7499 38.5641L44.1372 36.1994C44.3034 36.0844 44.3545 35.8415 44.2267 35.6753C44.0222 35.3814 43.7537 35.1513 43.4597 34.9979C43.6387 34.7806 43.7921 34.5633 43.9455 34.3332L45.0064 35.2408C45.1342 35.3558 45.326 35.3686 45.4666 35.2663L47.8696 33.5791C48.0358 33.464 48.0869 33.2212 47.9591 33.055C47.3583 32.1986 46.2335 31.9174 45.326 32.3392L44.9553 31.8023C45.2748 30.1151 44.9936 28.3895 44.1372 26.9067C44.853 26.0375 44.9297 24.7593 44.2522 23.8006C43.9583 23.3916 43.5364 23.072 43.0379 22.8931ZM36.4167 40.6988C35.8032 41.1206 34.9595 40.98 34.5377 40.3664C34.1543 39.8296 34.2309 39.101 34.6783 38.6408C35.3813 39.1138 36.1739 39.4078 36.9919 39.51C37.0175 39.9702 36.8002 40.4304 36.4167 40.6988ZM40.3153 37.9762C39.3311 38.6664 37.9889 38.4235 37.2987 37.4521C36.6084 36.4678 36.8769 35.1257 37.9122 34.4099C38.7687 33.8091 39.983 34.0009 40.6988 34.8317C40.8905 35.0618 41.0311 35.3174 41.1206 35.5987C41.1589 35.7137 41.2484 35.8032 41.3635 35.8415C41.4785 35.8799 41.6063 35.8671 41.7086 35.7904C42.2199 35.4325 42.8973 35.4708 43.3575 35.8415L40.3153 37.9762ZM31.0865 23.072C30.9076 22.9314 30.9715 22.7525 30.997 22.7013C31.0226 22.6502 31.1121 22.484 31.3422 22.5224L37.81 23.66C37.7333 23.7495 37.6694 23.839 37.6055 23.9412L35.9821 24.5292C34.1926 24.6698 32.467 24.1457 31.0865 23.072ZM31.9557 27.418C31.7384 27.3924 31.7001 27.2007 31.6873 27.1496C31.6873 27.0984 31.6745 26.8939 31.8918 26.8172L37.1325 24.9127C37.0175 25.3089 36.9919 25.7435 37.043 26.1526C35.5859 27.2007 33.7452 27.6609 31.9557 27.418ZM43.1785 26.7917L41.7214 27.8143C40.5837 28.6068 39.0243 28.3255 38.2318 27.2007C37.4393 26.0631 37.7205 24.5036 38.8453 23.7111C39.7529 23.072 40.9289 22.9186 41.977 23.3149L42.7695 23.6089C43.1146 23.7367 43.4214 23.9668 43.6259 24.2736C44.2011 25.0916 44.0094 26.2165 43.1785 26.7917Z" fill="#961914"/>
<path d="M40.4687 24.7593C40.392 24.8104 40.3281 24.8999 40.3153 25.0022C40.3025 25.1044 40.3153 25.2067 40.3792 25.2834C40.4431 25.3601 40.5198 25.424 40.6221 25.4368C40.7243 25.4496 40.8266 25.4368 40.9033 25.3729C40.98 25.3217 41.0439 25.2323 41.0567 25.13C41.0695 25.0277 41.0567 24.9255 40.9928 24.8488C40.9416 24.7721 40.8522 24.7082 40.7499 24.6954C40.6604 24.6698 40.5582 24.6954 40.4687 24.7593Z" fill="#961914"/>
<path d="M32.9783 33.6685C32.9016 33.7196 32.7993 33.7452 32.6971 33.7324C32.5948 33.7196 32.5054 33.6557 32.4542 33.579C32.4031 33.5023 32.3775 33.4001 32.3903 33.2978C32.4031 33.1956 32.467 33.1061 32.5437 33.055C32.6204 33.0038 32.7226 32.9783 32.8249 32.9911C32.9272 33.0038 33.0166 33.0677 33.0678 33.1444C33.1189 33.2211 33.1445 33.3234 33.1317 33.4257C33.1189 33.5279 33.0678 33.6174 32.9783 33.6685Z" fill="#961914"/>
<path d="M24.1202 20.6946C24.3249 20.6946 24.4909 20.5286 24.4909 20.3239C24.4909 20.1191 24.3249 19.9532 24.1202 19.9532C23.9154 19.9532 23.7495 20.1191 23.7495 20.3239C23.7495 20.5286 23.9154 20.6946 24.1202 20.6946Z" fill="#961914"/>
<path d="M12.7439 35.0618L14.4184 36.9025C15.5944 38.2062 17.1283 39.1393 18.8283 39.5867L19.9787 40.865C20.0426 40.9417 20.1321 40.98 20.2343 40.98L21.2697 41.0311C21.372 41.0311 21.4614 41.0056 21.5381 40.9416L22.0878 40.4559C22.2412 40.3153 22.2539 40.0852 22.1133 39.9446L20.0043 37.6055L21.0396 37.6566L22.1645 38.9093C22.2284 38.986 22.3179 39.0243 22.4201 39.0243L23.4555 39.0754C23.5577 39.0754 23.6472 39.0499 23.7239 38.986L24.2735 38.5002C24.4269 38.3596 24.4397 38.1295 24.2991 37.9889L21.8321 35.2535C22.1006 34.9468 22.2923 34.5889 22.3818 34.1926C22.4712 33.8475 22.663 33.5279 22.9186 33.2851L24.3502 31.9941C24.7976 32.2369 25.2833 32.4159 25.7691 32.5437L26.4465 32.7099L27.5969 33.9881C27.6608 34.0648 27.7503 34.1031 27.8526 34.1031L28.8879 34.1543C28.9902 34.1543 29.0797 34.1287 29.1564 34.0648L29.706 33.5791C29.8594 33.4385 29.8722 33.2084 29.7316 33.0678L27.3541 30.4346L28.6323 30.7542L29.7827 32.0324C29.8466 32.1091 29.9361 32.1474 30.0383 32.1474L31.0737 32.1986C31.176 32.1986 31.2654 32.173 31.3421 32.1091L31.8918 31.6234C32.0452 31.4828 32.0579 31.2527 31.9173 31.1121L27.9804 26.7661L27.9676 26.7789C27.9676 25.6924 27.5586 24.657 26.83 23.8517L25.8458 22.7653L26.8172 21.8833C26.9578 21.7555 27.0729 21.5893 27.1496 21.4103C27.4052 20.7584 27.0856 20.0298 26.4337 19.787L26.0375 19.6336L26.5488 19.1734C26.6255 19.1095 26.6638 19.02 26.6638 18.9178L26.715 17.8824C26.7277 17.6779 26.5744 17.5117 26.3698 17.499L25.3345 17.4478C25.2322 17.4478 25.1427 17.4734 25.066 17.5373L24.5164 18.023C23.8389 17.2689 22.6758 17.2177 21.9344 17.8952L20.9246 18.8027C20.1065 19.5441 19.5441 20.5156 19.3012 21.5893C19.0967 22.5224 18.611 23.3532 17.908 23.9924L13.1018 28.3383C11.1334 30.1023 10.98 33.1061 12.7439 35.0618ZM25.9097 18.7133L25.4751 19.0967L24.9893 18.5471L25.4239 18.1636L25.9352 18.1892L25.9097 18.7133ZM25.1939 22.3179L24.2096 22.075L23.545 21.3464C23.4043 21.193 23.1743 21.1803 23.0337 21.3209L22.3306 21.96L21.8193 21.9344L21.8449 21.4231L22.5479 20.784C22.5863 20.7457 22.6246 20.6945 22.6374 20.6434L22.9058 19.9659L24.1968 18.79L25.4239 20.1449L25.1555 20.3877L25.6412 20.9374L26.1525 20.4772C26.2164 20.5028 26.2804 20.5539 26.3315 20.6051C26.5232 20.8223 26.5104 21.1547 26.2931 21.3464L25.1939 22.3179ZM30.1917 31.4189L29.3098 30.4474L29.8594 29.9617L31.0865 31.3166L30.9331 31.4572L30.1917 31.4189ZM26.9323 29.5782C27.3796 29.0414 27.6864 28.4022 27.827 27.712L29.3609 29.412L28.6962 30.0128L26.9323 29.5782ZM28.0187 33.3873L27.1368 32.4159L27.6864 31.9301L28.9135 33.2851L28.7601 33.4257L28.0187 33.3873ZM22.5863 38.3085L21.7043 37.337L22.2539 36.8513L23.481 38.2062L23.3149 38.3468L22.5863 38.3085ZM20.017 36.8769L21.2697 35.752L21.7554 36.3017L21.0524 36.9408L20.017 36.8769ZM20.4133 40.2642L19.5313 39.2927L20.081 38.807L21.3081 40.1619L21.1547 40.3025L20.4133 40.2642ZM13.2808 34.5761C11.7853 32.9272 11.9131 30.3835 13.562 28.888L18.3681 24.542C19.1862 23.8006 19.7486 22.8292 19.9915 21.7555C20.196 20.8223 20.6817 19.9915 21.3847 19.3524L22.3945 18.4448C22.7397 18.1381 23.251 18.0742 23.66 18.2915L22.3434 19.4802C22.3051 19.5186 22.2667 19.5697 22.2539 19.6208L21.9855 20.2983L21.2314 20.9757C21.1547 21.0396 21.1163 21.1291 21.1163 21.2314L21.0652 22.2667C21.0524 22.4713 21.2058 22.6374 21.4103 22.6502L22.4457 22.7013C22.5479 22.7013 22.6374 22.6758 22.7141 22.6119L23.2637 22.1261L23.7495 22.6758C23.8006 22.7269 23.8645 22.7653 23.9284 22.7908L25.1044 23.0848L26.2548 24.363C27.5202 25.7563 27.5202 27.8782 26.2548 29.2842L25.2833 28.2105L24.7337 28.6962L27.1879 31.4189L26.5232 32.0196L25.9225 31.8662C24.836 31.5978 23.8517 30.997 23.0976 30.1662L22.5479 30.6519C22.8803 31.0226 23.251 31.3422 23.66 31.6234L22.3945 32.7738C22.0239 33.1061 21.7554 33.5535 21.6276 34.0392C21.5381 34.3843 21.3464 34.7039 21.0908 34.9468L19.1351 36.7107L17.6651 35.0746L17.1155 35.5603L19.5697 38.2829L18.9178 38.8581C17.3967 38.4363 16.0162 37.5927 14.9553 36.4039L13.2808 34.5761Z" fill="#961914"/>
</svg>
