<svg width="60" height="60" viewBox="0 0 60 60" fill="none" xmlns="http://www.w3.org/2000/svg">
<path d="M29.9996 59.9861C46.561 59.9861 59.9867 46.5604 59.9867 29.999C59.9867 13.4376 46.561 0.0119019 29.9996 0.0119019C13.4381 0.0119019 0.0124512 13.4376 0.0124512 29.999C0.0124512 46.5604 13.4381 59.9861 29.9996 59.9861Z" fill="#EAD1D0"/>
<path d="M30.0001 50.4722C41.3068 50.4722 50.4728 41.3063 50.4728 29.9995C50.4728 18.6927 41.3068 9.52679 30.0001 9.52679C18.6933 9.52679 9.52734 18.6927 9.52734 29.9995C9.52734 41.3063 18.6933 50.4722 30.0001 50.4722Z" stroke="#961914" stroke-width="0.5" stroke-miterlimit="10"/>
<path d="M35.4534 3.403L33.2876 3.10648L32.7848 6.79363L32.1788 6.70339L32.759 2.50055L35.5179 2.88731L35.4534 3.403Z" fill="#961914"/>
<path d="M35.4921 7.07723C35.2858 6.87095 35.144 6.6389 35.0667 6.35527C34.9893 6.07164 35.0022 5.78801 35.0796 5.4786C35.1698 5.16919 35.3116 4.92424 35.5179 4.71797C35.7242 4.51169 35.9691 4.38277 36.2528 4.31831C36.5364 4.25385 36.8329 4.26674 37.1423 4.3441C37.4517 4.43434 37.7096 4.57615 37.9158 4.76954C38.1221 4.97581 38.2639 5.20787 38.3284 5.4915C38.4057 5.77512 38.3929 6.05875 38.3155 6.36816C38.2381 6.67757 38.0834 6.92252 37.8901 7.1288C37.6967 7.33507 37.4388 7.46399 37.1552 7.54134C36.8716 7.60581 36.5751 7.60581 36.2656 7.51556C35.9562 7.42532 35.6984 7.2835 35.4921 7.07723ZM36.9747 7.02566C37.1552 6.97409 37.3228 6.88385 37.4517 6.74203C37.5935 6.60022 37.6838 6.41973 37.7482 6.21346C37.8127 5.99429 37.8127 5.80091 37.774 5.60752C37.7225 5.41414 37.6451 5.25944 37.5033 5.11762C37.3615 4.97581 37.1939 4.89846 37.0005 4.834C36.8071 4.78243 36.6137 4.76954 36.4332 4.8211C36.2528 4.87267 36.0852 4.96292 35.9562 5.10473C35.8273 5.24655 35.7242 5.42703 35.6597 5.63331C35.5953 5.85248 35.5953 6.04586 35.6339 6.23924C35.6726 6.43262 35.7629 6.60022 35.9047 6.72914C36.0336 6.85806 36.2012 6.9612 36.3946 7.01277C36.6008 7.07723 36.7813 7.07723 36.9747 7.02566Z" fill="#961914"/>
<path d="M41.835 8.74034C41.719 8.99819 41.5256 9.15289 41.2678 9.19157C41.0099 9.24314 40.6876 9.17867 40.3137 8.99818L38.9214 8.34069L40.3008 5.42706L41.6545 6.07167C42.0026 6.23927 42.2347 6.41976 42.3636 6.65182C42.4925 6.88387 42.5054 7.10304 42.3894 7.3351C42.312 7.4898 42.2089 7.60583 42.08 7.67029C41.9381 7.74765 41.7834 7.77343 41.6158 7.76054C41.9381 8.03127 42.0155 8.36647 41.835 8.74034ZM40.997 8.70167C41.1388 8.68877 41.242 8.59853 41.3193 8.45671C41.3838 8.30201 41.3967 8.17309 41.3322 8.04417C41.2678 7.91525 41.1259 7.81211 40.9068 7.70897L40.0301 7.29642L39.6176 8.17309L40.4684 8.57274C40.6747 8.67588 40.8552 8.71456 40.997 8.70167ZM40.2106 6.92255L40.997 7.29642C41.2033 7.38667 41.3709 7.42534 41.5127 7.39956C41.6545 7.37378 41.7577 7.29642 41.8221 7.15461C41.951 6.87098 41.8092 6.63892 41.4096 6.44554L40.6103 6.07167L40.2106 6.92255Z" fill="#961914"/>
<path d="M46.3989 8.98532L44.5553 11.6153L44.1298 11.3188L44.71 10.4808L43.9493 9.93934L43.8978 9.90066L42.7375 10.3261L42.2218 9.96512L43.4981 9.5139C43.3434 9.32052 43.2532 9.11424 43.2532 8.89508C43.2403 8.6888 43.3047 8.46964 43.4594 8.27625C43.6657 7.97973 43.9365 7.81214 44.2459 7.79924C44.5682 7.78635 44.9034 7.90238 45.2643 8.16022L46.3989 8.98532ZM43.8075 9.15292C43.8591 9.32052 44.0009 9.47522 44.2201 9.62993L44.9549 10.1456L45.6769 9.11424L44.9678 8.61145C44.5166 8.28914 44.1556 8.30204 43.9107 8.65012C43.7946 8.81772 43.756 8.98532 43.8075 9.15292Z" fill="#961914"/>
<path d="M48.294 14.4645L47.4045 15.354L47.0177 14.9673L47.5463 14.4387L45.6511 12.5307L45.1225 13.0592L44.7358 12.6725L45.6253 11.7829L45.7414 11.8989C45.8961 12.0408 46.1023 12.0279 46.3473 11.8989C46.6051 11.7571 46.9145 11.5122 47.3013 11.177L48.1006 10.4421L49.854 12.2084L47.933 14.1164L48.294 14.4645ZM46.863 12.2213C46.6438 12.376 46.4375 12.4404 46.2571 12.4275L47.5205 13.7038L49.0804 12.1568L48.1006 11.1641L47.6365 11.5766C47.3529 11.8603 47.095 12.0665 46.863 12.2213Z" fill="#961914"/>
<path d="M51.1947 13.7941L51.517 14.2711L49.5832 15.5861L52.6258 15.9084L52.9223 16.3467L50.2536 18.1516L49.9313 17.6746L51.8651 16.3596L48.8226 16.0502L48.5261 15.6119L51.1947 13.7941Z" fill="#961914"/>
<path d="M53.8763 18.0742L54.1083 18.6157L52.8578 19.1572L53.5797 20.8331L54.8303 20.2917L55.0623 20.8331L52.11 22.1095L51.878 21.568L53.1156 21.0394L52.3808 19.3634L51.1431 19.892L50.9111 19.3634L53.8763 18.0742Z" fill="#961914"/>
<path d="M55.8617 24.8813C55.707 25.1649 55.4104 25.3454 54.9979 25.4486L53.1156 25.8998L52.9867 25.3583L53.3993 25.2552C53.2317 25.1907 53.0899 25.0876 52.9738 24.9329C52.8578 24.7782 52.7676 24.5719 52.716 24.3398C52.6386 23.9917 52.6515 23.6952 52.7676 23.4374C52.8836 23.1924 53.0899 23.0248 53.3606 22.9604C53.6313 22.8959 53.8763 22.9475 54.0954 23.1022C54.3146 23.2569 54.4693 23.5663 54.5725 24.0046L54.7916 24.9071L54.9077 24.8813C55.1526 24.8297 55.3202 24.7137 55.4233 24.5332C55.5265 24.3527 55.5394 24.1336 55.4749 23.8628C55.4362 23.6823 55.3589 23.5018 55.2557 23.3471C55.1526 23.1795 55.0366 23.0506 54.9077 22.9604L55.2815 22.6252C55.4491 22.7541 55.5909 22.9217 55.7199 23.128C55.8488 23.3343 55.939 23.5663 55.9906 23.8242C56.0551 24.2367 56.0293 24.5977 55.8617 24.8813ZM53.438 24.8555C53.5669 24.9844 53.7345 25.0747 53.9279 25.1005L54.3662 24.9973L54.1599 24.1207C54.0439 23.6437 53.8247 23.4374 53.5024 23.5147C53.3477 23.5534 53.2317 23.6437 53.1801 23.7855C53.1156 23.9273 53.1157 24.1078 53.1672 24.3269C53.2188 24.5461 53.309 24.7266 53.438 24.8555Z" fill="#961914"/>
<path d="M58.5561 30.3862L58.569 30.9148L52.832 28.981V28.4524L58.5561 30.3862Z" fill="#961914"/>
<path d="M57.3572 34.602L57.2153 35.1821L54.031 34.4215L56.6352 37.6316L56.5063 38.1731L52.3808 37.1933L52.5226 36.6132L55.707 37.3738L53.1156 34.1637L53.2446 33.6222L57.3572 34.602Z" fill="#961914"/>
<path d="M54.7787 39.9135L54.5338 40.4421L53.2961 39.8619L52.5226 41.525L53.7603 42.1052L53.5153 42.6337L50.6017 41.2801L50.8466 40.7515L52.0714 41.3187L52.8449 39.6556L51.6202 39.0884L51.8651 38.5598L54.7787 39.9135Z" fill="#961914"/>
<path d="M48.41 45.4056L47.3915 44.6707L47.701 44.2324L48.3069 44.6707L49.8797 42.492L49.2738 42.0536L49.5961 41.6024L50.6146 42.3373L50.5114 42.4791C50.3954 42.6596 50.4341 42.853 50.6146 43.0721C50.7951 43.2913 51.0916 43.5749 51.4783 43.8843L52.3292 44.5547L50.8724 46.5788L48.6679 45.0059L48.41 45.4056ZM50.3825 43.6265C50.202 43.4331 50.0989 43.2397 50.0731 43.0721L49.0288 44.5418L50.808 45.8181L51.6202 44.6836L51.1303 44.2969C50.8208 44.0519 50.5759 43.8199 50.3825 43.6265Z" fill="#961914"/>
<path d="M46.2055 48.8736L48.0748 47.0558C47.8557 46.8753 47.5978 46.7979 47.3271 46.8237C47.0564 46.8495 46.8114 46.9655 46.5794 47.1847C46.3086 47.4554 46.1668 47.7648 46.1797 48.1129L45.6898 48.0614C45.6769 47.8422 45.7156 47.623 45.8058 47.4039C45.8961 47.1847 46.0379 46.9913 46.2313 46.8108C46.4762 46.5788 46.747 46.4112 47.0306 46.3338C47.3142 46.2565 47.5978 46.2436 47.8815 46.3338C48.1522 46.4112 48.41 46.5659 48.6292 46.7979C48.8484 47.0171 48.9902 47.2749 49.0675 47.5457C49.1449 47.8293 49.1449 48.1 49.0675 48.3708C48.9902 48.6415 48.8355 48.8865 48.6163 49.0927C48.3971 49.3119 48.1522 49.4408 47.8815 49.5182C47.6107 49.5826 47.34 49.5697 47.0693 49.4924C46.7985 49.415 46.5536 49.2474 46.3215 49.0154C46.2828 48.9767 46.2442 48.9251 46.2055 48.8736ZM48.6034 48.0614C48.6163 47.8035 48.539 47.5715 48.3714 47.3523L46.8888 48.7833C47.095 48.9509 47.3271 49.0412 47.5849 49.0283C47.8428 49.0283 48.0619 48.9251 48.2682 48.7318C48.4745 48.5384 48.5776 48.3192 48.6034 48.0614Z" fill="#961914"/>
<path d="M46.0894 51.2586L45.5995 51.5809L44.2974 49.6342L43.9493 52.6767L43.511 52.9732L41.7319 50.2917L42.2218 49.9694L43.5239 51.9161L43.8591 48.8735L44.2974 48.577L46.0894 51.2586ZM45.7671 52.2384C45.9863 52.2642 46.1668 52.3931 46.3215 52.6123L45.9992 52.8314C45.9089 52.7154 45.8058 52.638 45.6769 52.6123C45.5479 52.5865 45.4061 52.6252 45.2643 52.7154C45.1225 52.8056 45.0452 52.9217 45.0065 53.0506C44.9678 53.1795 44.9936 53.3084 45.0709 53.4374L44.7357 53.6565C44.5939 53.4245 44.5424 53.2053 44.6068 52.999C44.6713 52.7928 44.826 52.5994 45.0709 52.4318C45.3159 52.2771 45.5608 52.2126 45.7671 52.2384Z" fill="#961914"/>
<path d="M39.9141 52.6767L40.52 52.406L39.9786 51.1555L40.5071 50.9234L41.7835 53.8757L41.242 54.1078L40.7005 52.8572L40.0817 53.128L39.6692 54.791L39.1019 55.036L39.6047 53.128L37.7482 52.1224L38.3799 51.8516L39.9141 52.6767Z" fill="#961914"/>
<path d="M35.5824 55.7193C35.2987 55.5646 35.1054 55.281 35.0022 54.8555L34.5252 52.9733L35.0667 52.8315L35.1698 53.244C35.2214 53.0764 35.3374 52.9346 35.4921 52.8057C35.6468 52.6896 35.8402 52.5994 36.0852 52.5349C36.4332 52.4447 36.7298 52.4576 36.9876 52.5736C37.2454 52.6896 37.4002 52.883 37.4775 53.1538C37.542 53.4245 37.5033 53.6694 37.3486 53.8886C37.1939 54.1078 36.8974 54.2754 36.459 54.3785L35.5695 54.6106L35.5953 54.7266C35.6597 54.9716 35.7757 55.1391 35.9433 55.2294C36.1109 55.3196 36.343 55.3325 36.6137 55.2681C36.7942 55.2165 36.9747 55.152 37.1294 55.036C37.2841 54.92 37.413 54.8168 37.5162 54.675L37.8643 55.036C37.7354 55.2036 37.5678 55.3583 37.3615 55.4743C37.1552 55.6033 36.9231 55.6935 36.6782 55.758C36.227 55.8998 35.866 55.874 35.5824 55.7193ZM35.5695 53.2956C35.4405 53.4245 35.3632 53.5921 35.3374 53.7855L35.4405 54.2238L36.3043 54.0046C36.7813 53.8886 36.9876 53.6694 36.8974 53.3471C36.8587 53.1924 36.7684 53.0764 36.6266 53.0248C36.4848 52.9604 36.3043 52.9604 36.0852 53.0248C35.8789 53.0635 35.6984 53.1538 35.5695 53.2956Z" fill="#961914"/>
<path d="M23.8634 56.4155L26.0164 56.7894L26.6352 53.128L27.2282 53.2311L26.5063 57.4211L23.7603 56.957L23.8634 56.4155Z" fill="#961914"/>
<path d="M23.9279 52.7283C24.1341 52.9346 24.2631 53.1795 24.3404 53.4631C24.4049 53.7468 24.392 54.0304 24.3017 54.3398C24.2115 54.6492 24.0568 54.8942 23.8505 55.0876C23.6442 55.2809 23.3993 55.4099 23.1157 55.4743C22.832 55.5388 22.5355 55.5259 22.2261 55.4228C21.9167 55.3325 21.6588 55.1907 21.4655 54.9844C21.2592 54.7781 21.1303 54.5332 21.0658 54.2625C21.0013 53.9788 21.0142 53.6952 21.1045 53.3858C21.1947 53.0893 21.3365 52.8314 21.5557 52.6381C21.7749 52.4447 22.0069 52.3157 22.2906 52.2513C22.5742 52.1868 22.8707 52.1997 23.1801 52.29C23.4766 52.3673 23.7216 52.522 23.9279 52.7283ZM22.4453 52.7412C22.2648 52.7928 22.0972 52.883 21.9683 53.0119C21.8264 53.1537 21.7233 53.3213 21.6588 53.5405C21.5944 53.7597 21.5815 53.953 21.6202 54.1464C21.6588 54.3398 21.7491 54.5074 21.878 54.6363C22.0069 54.7781 22.1745 54.8684 22.3679 54.9329C22.5613 54.9973 22.7547 54.9973 22.9352 54.9586C23.1157 54.92 23.2832 54.8297 23.4251 54.6879C23.5669 54.5461 23.67 54.3785 23.7345 54.1593C23.7989 53.9402 23.8118 53.7468 23.7603 53.5534C23.7216 53.36 23.6313 53.1924 23.5024 53.0635C23.3735 52.9217 23.2059 52.8314 23.0125 52.767C22.8191 52.7025 22.6257 52.7025 22.4453 52.7412Z" fill="#961914"/>
<path d="M17.6494 50.8847C17.7783 50.6269 17.9717 50.4851 18.2295 50.4464C18.4874 50.4077 18.8097 50.4851 19.1835 50.6784L20.563 51.3875L19.1062 54.2496L17.7783 53.5663C17.4431 53.3987 17.2111 53.1924 17.0821 52.9732C16.9532 52.7541 16.9532 52.522 17.0692 52.2771C17.1466 52.1224 17.2497 52.0192 17.3915 51.9548C17.5334 51.8903 17.6881 51.8645 17.8557 51.8774C17.5334 51.5809 17.456 51.2586 17.6494 50.8847ZM19.2222 52.7541L18.4487 52.3544C18.2553 52.2513 18.0877 52.2126 17.9459 52.2384C17.8041 52.2513 17.701 52.3415 17.6365 52.4704C17.4947 52.7412 17.6236 52.9861 18.0361 53.1924L18.8097 53.5921L19.2222 52.7541ZM18.4745 50.9492C18.3327 50.9621 18.2166 51.0394 18.1522 51.1812C18.0748 51.3359 18.0748 51.4649 18.1264 51.5809C18.1909 51.7098 18.3327 51.8258 18.5389 51.929L19.4027 52.3673L19.841 51.5035L19.0031 51.0781C18.7968 50.9878 18.6163 50.9363 18.4745 50.9492Z" fill="#961914"/>
<path d="M13.0856 50.4851L15.0194 47.9196L15.4319 48.229L14.826 49.0412L15.5738 49.6084L15.6253 49.6471L16.7985 49.2603L17.3013 49.6342L16.0121 50.0468C16.1668 50.253 16.2441 50.4593 16.2441 50.6656C16.2441 50.8719 16.1668 51.0781 16.025 51.2844C15.8058 51.5809 15.5351 51.7227 15.2257 51.7356C14.9034 51.7356 14.5682 51.6067 14.2201 51.3489L13.0856 50.4851ZM15.6769 50.4077C15.6253 50.2401 15.4964 50.0854 15.2772 49.9178L14.5682 49.3764L13.8075 50.3948L14.5037 50.9105C14.9549 51.2457 15.303 51.2457 15.5609 50.9105C15.6769 50.73 15.7156 50.5624 15.6769 50.4077Z" fill="#961914"/>
<path d="M11.3967 44.9801L12.3121 44.1163L12.6859 44.516L12.1445 45.0188L13.9751 46.9784L14.5166 46.4756L14.8905 46.8753L13.9751 47.7261L13.8591 47.5972C13.7044 47.4554 13.511 47.4554 13.2532 47.5843C12.9953 47.7132 12.673 47.9453 12.2863 48.2805L11.4612 48.9896L9.74652 47.1847L11.719 45.3411L11.3967 44.9801ZM12.7504 47.2749C12.9824 47.1331 13.1758 47.0686 13.3563 47.0815L12.1316 45.7665L10.52 47.262L11.4741 48.2805L11.9511 47.8808C12.2605 47.623 12.5183 47.4167 12.7504 47.2749Z" fill="#961914"/>
<path d="M8.45732 45.5345L8.14791 45.0446L10.1204 43.7941L7.09076 43.3815L6.80713 42.9303L9.52737 41.2156L9.83678 41.7055L7.85139 42.9561L10.881 43.3686L11.1647 43.8199L8.45732 45.5345Z" fill="#961914"/>
<path d="M5.90467 41.1641L5.6855 40.6226L6.94893 40.1198L6.29143 38.4181L5.028 38.9208L4.80884 38.3794L7.79981 37.1933L8.01898 37.7348L6.76844 38.2247L7.43883 39.9264L8.68937 39.4365L8.90854 39.978L5.90467 41.1641Z" fill="#961914"/>
<path d="M4.13844 34.3441C4.30604 34.0734 4.60256 33.8929 5.028 33.8027L6.92315 33.4159L7.03917 33.9574L6.61373 34.0347C6.78133 34.0992 6.92315 34.2152 7.03917 34.3699C7.1552 34.5246 7.23256 34.7309 7.28413 34.9758C7.36148 35.3239 7.33569 35.6333 7.20677 35.8783C7.07785 36.1232 6.87158 36.278 6.60084 36.3295C6.31722 36.3811 6.07227 36.3295 5.86599 36.1619C5.65972 35.9943 5.50501 35.6849 5.41477 35.2466L5.23428 34.3441L5.11825 34.3699C4.8733 34.4215 4.69281 34.5246 4.60256 34.7051C4.49942 34.8727 4.47364 35.0919 4.5381 35.3755C4.57678 35.556 4.64124 35.7365 4.74437 35.9041C4.84751 36.0717 4.95065 36.2006 5.07957 36.3037L4.7057 36.626C4.5381 36.4842 4.39629 36.3166 4.28026 36.1104C4.16423 35.9041 4.07398 35.672 4.02242 35.4142C3.93217 34.9758 3.97085 34.6149 4.13844 34.3441ZM6.56217 34.4344C6.43324 34.2926 6.26565 34.2152 6.07226 34.1765L5.63393 34.2668L5.81442 35.1434C5.91756 35.6333 6.12383 35.8396 6.44614 35.7623C6.60084 35.7236 6.71687 35.6462 6.78133 35.5044C6.84579 35.3626 6.85869 35.1821 6.80712 34.963C6.78133 34.7567 6.69109 34.5762 6.56217 34.4344Z" fill="#961914"/>
<path d="M1.61157 28.736L1.62446 28.2075L7.3099 30.3089L7.297 30.8375L1.61157 28.736Z" fill="#961914"/>
<path d="M2.95233 24.5332L3.10704 23.953L6.26561 24.8168L3.76454 21.5293L3.90635 20.9879L8.00605 22.1095L7.85134 22.6767L4.69277 21.813L7.18095 25.1004L7.03914 25.6419L2.95233 24.5332Z" fill="#961914"/>
<path d="M5.68549 19.3248L5.94333 18.8091L7.16808 19.4279L7.99318 17.7906L6.76843 17.1718L7.03916 16.6561L9.91411 18.1129L9.65626 18.6286L8.4573 18.0227L7.6322 19.66L8.83117 20.2659L8.57332 20.7816L5.68549 19.3248Z" fill="#961914"/>
<path d="M12.2476 14.0132L13.2403 14.7739L12.9051 15.2122L12.312 14.761L10.6747 16.8882L11.2678 17.3394L10.9326 17.7778L9.93988 17.0171L10.043 16.8882C10.159 16.7206 10.1333 16.5143 9.95277 16.2823C9.77228 16.0502 9.50155 15.7666 9.11478 15.4314L8.27679 14.7352L9.79807 12.7498L11.9382 14.4L12.2476 14.0132ZM10.2106 15.7279C10.3911 15.9342 10.4813 16.1147 10.4942 16.2952L11.5901 14.8641L9.84963 13.5233L8.99875 14.6321L9.47576 15.0317C9.78517 15.2896 10.0301 15.5216 10.2106 15.7279Z" fill="#961914"/>
<path d="M14.5424 10.6355L12.6086 12.3888C12.8278 12.5693 13.0727 12.6596 13.3434 12.6467C13.6142 12.6338 13.872 12.5178 14.1041 12.3115C14.3877 12.0537 14.5295 11.7442 14.5295 11.3962L15.0194 11.4606C15.0194 11.6798 14.9807 11.8989 14.8776 12.1181C14.7745 12.3244 14.6327 12.5307 14.4264 12.7111C14.1685 12.9432 13.9107 13.085 13.6142 13.1624C13.3305 13.2397 13.0469 13.2268 12.7633 13.1366C12.5054 13.0206 12.2605 12.8659 12.0542 12.6338C11.848 12.4017 11.7061 12.1439 11.6417 11.8732C11.5772 11.5895 11.5901 11.3188 11.6675 11.0481C11.7577 10.7773 11.9124 10.5453 12.1445 10.339C12.3765 10.1327 12.6215 9.99091 12.8922 9.93934C13.1629 9.88777 13.4337 9.90067 13.7044 9.99091C13.9752 10.0812 14.2201 10.2488 14.4393 10.4937C14.4651 10.5195 14.5037 10.5711 14.5424 10.6355ZM12.1316 11.3575C12.1058 11.6153 12.1703 11.8474 12.3379 12.0665L13.8591 10.6742C13.6528 10.4937 13.4208 10.4035 13.1629 10.4035C12.9051 10.4035 12.673 10.4937 12.4668 10.6871C12.2734 10.8805 12.1574 11.0996 12.1316 11.3575Z" fill="#961914"/>
<path d="M15.0839 7.28354C14.8647 7.24486 14.6842 7.11594 14.5424 6.88388L14.8776 6.67761C14.955 6.80653 15.071 6.88388 15.1999 6.89677C15.3288 6.92256 15.4707 6.89677 15.6125 6.80653C15.7543 6.71629 15.8445 6.61315 15.8832 6.48423C15.9219 6.35531 15.909 6.22638 15.8316 6.09746L16.1797 5.8783C16.3215 6.11035 16.3602 6.32952 16.2829 6.54869C16.2184 6.75496 16.0508 6.94834 15.8058 7.10305C15.5351 7.25775 15.3031 7.32222 15.0839 7.28354ZM14.7358 8.25045L15.2257 7.94104L16.4633 9.92643L16.9017 6.89677L17.3529 6.61315L19.0547 9.34628L18.5648 9.65569L17.3271 7.6703L16.8759 10.7L16.4247 10.9836L14.7358 8.25045Z" fill="#961914"/>
<path d="M20.9498 7.0257L20.331 7.27065L20.8337 8.53408L20.2923 8.75325L19.1062 5.76227L19.6477 5.54311L20.1505 6.80654L20.7822 6.54869L21.2463 4.8985L21.8264 4.66644L21.2721 6.56159L23.1028 7.63163L22.4582 7.88948L20.9498 7.0257Z" fill="#961914"/>
<path d="M25.3718 4.12496C25.6425 4.29256 25.8359 4.57618 25.9261 5.00162L26.3387 6.89677L25.7972 7.0128L25.707 6.60025C25.6425 6.76785 25.5394 6.90966 25.3718 7.02569C25.2171 7.14172 25.0108 7.23196 24.7787 7.28353C24.4306 7.36089 24.1212 7.3351 23.8763 7.21907C23.6313 7.09015 23.4766 6.89677 23.4122 6.61314C23.3477 6.34241 23.3993 6.09746 23.5669 5.87829C23.7345 5.67201 24.031 5.51731 24.4693 5.41417L25.3718 5.22079L25.346 5.10476C25.2944 4.85981 25.1784 4.69221 25.0108 4.58908C24.8432 4.48594 24.6111 4.47305 24.3404 4.53751C24.1599 4.57618 23.9794 4.65354 23.8118 4.74378C23.6442 4.84692 23.5153 4.96295 23.4122 5.09187L23.077 4.718C23.2059 4.5504 23.3864 4.40859 23.5927 4.29256C23.7989 4.17653 24.031 4.08628 24.2888 4.03471C24.7401 3.93158 25.101 3.95736 25.3718 4.12496ZM25.3202 6.54868C25.4491 6.41976 25.5394 6.25216 25.578 6.05878L25.4749 5.62045L24.5982 5.81383C24.1083 5.91697 23.915 6.13613 23.9794 6.45844C24.0181 6.61314 24.0954 6.72917 24.2502 6.79363C24.392 6.85809 24.5725 6.87098 24.7916 6.81942C25.0108 6.76785 25.1784 6.6776 25.3202 6.54868Z" fill="#961914"/>
<path d="M44.1943 30.2573C44.1041 30.1413 43.9751 30.0768 43.8333 30.0768C43.6786 30.0768 43.5239 30.0253 43.4079 29.9221C43.034 29.6514 42.5828 29.5354 42.0671 29.5998C42.2605 29.2517 42.3765 28.8521 42.3765 28.4395V28.4137C42.3765 28.1559 42.1702 27.9625 41.9124 27.9625C41.6546 27.9625 41.4612 28.1688 41.4612 28.4266V28.4524C41.4612 28.9036 41.242 29.3291 40.8681 29.5869C40.5329 29.4322 40.1591 29.342 39.7594 29.3549C39.3598 29.3678 38.9859 29.4451 38.6507 29.6127C38.2768 29.3678 38.0448 28.9423 38.0448 28.4911V28.4653C38.0448 28.2075 37.8385 28.0141 37.5806 28.0141C37.3228 28.0141 37.1294 28.2204 37.1294 28.4782V28.504C37.1294 28.9165 37.2454 29.3162 37.4517 29.6514C36.9489 29.5998 36.4848 29.7159 36.1238 29.9866C35.9949 30.0897 35.8531 30.1413 35.6984 30.1413C35.5566 30.1413 35.4277 30.2186 35.3503 30.3218C35.273 30.4249 35.2343 30.5796 35.273 30.7085C35.3761 31.1082 35.5566 31.4305 35.7886 31.6755C35.144 31.8044 34.4865 31.8688 33.829 31.8688L26.7384 31.9333H26.7255L24.4564 31.9591C22.3421 31.972 20.6404 33.7124 20.6533 35.8267L20.6791 39.4623C20.6791 39.7202 20.8853 39.9135 21.1432 39.9135C21.401 39.9135 21.5944 39.7073 21.5944 39.4494L21.5686 35.8138C21.5557 34.4344 22.5226 33.2612 23.8118 32.9518C23.7216 33.0291 23.6314 33.1194 23.5411 33.1967C22.832 33.9187 22.4066 34.8598 22.3421 35.8654C22.3421 35.8783 22.3421 35.9041 22.3421 35.917C22.3421 36.0072 22.3292 36.0975 22.3292 36.1877L22.3421 37.0257C22.355 37.8766 22.6 38.7017 23.0512 39.4236C23.4766 40.0811 24.0568 40.6226 24.7401 40.9836L25.1913 42.4533L25.2171 45.715C25.2171 46.1662 25.591 46.5272 26.0422 46.5272L29.6004 46.5014C29.8969 46.5014 30.1677 46.3467 30.3095 46.0889C30.4642 45.831 30.4642 45.5216 30.3224 45.2638L30.0387 44.7352L30.013 41.9634L33.7775 41.9247C33.8806 42.131 34.0095 42.3244 34.1642 42.5049L34.19 45.6376C34.19 46.0889 34.5639 46.4498 35.0151 46.4498L38.2768 46.4241C38.5733 46.4241 38.8441 46.2694 38.9859 46.0115C39.1406 45.7537 39.1406 45.4443 38.9988 45.1864L38.7152 44.6578L38.6894 42.363C39.0117 42.0021 39.2824 41.5895 39.4887 41.1512C40.8552 40.3003 41.7706 38.7919 41.7964 37.0644C42.441 36.7936 42.8922 36.149 42.8793 35.4013V35.195C42.8793 34.718 42.6859 34.2926 42.3894 33.9832C42.4023 33.9445 42.4023 33.9058 42.4023 33.88L42.3894 32.1396C42.4152 32.1396 42.4539 32.1396 42.4925 32.1396C42.7504 32.1396 43.0598 32.088 43.3692 31.9204C43.8204 31.6755 44.1298 31.2371 44.2846 30.6183C44.3103 30.5152 44.2846 30.3734 44.1943 30.2573ZM41.4741 31.9462L41.487 33.4932C41.358 33.4675 41.2291 33.4546 41.0873 33.4546L38.5089 33.4804C38.3671 33.4804 38.2381 33.4932 38.1092 33.5319L38.0963 31.9849C38.0834 31.0566 38.8441 30.2831 39.7723 30.2831C40.7005 30.2702 41.4612 31.018 41.4741 31.9462ZM36.6782 30.7085C36.9489 30.5023 37.3099 30.5281 37.5549 30.5925C37.4259 30.7988 37.3228 31.0309 37.2583 31.2758C37.1165 31.3016 36.8587 31.3145 36.6266 31.1985C36.5106 31.134 36.4075 31.0437 36.3301 30.9148C36.459 30.8633 36.5751 30.7988 36.6782 30.7085ZM31.3408 33.1581C31.3408 32.9776 31.4827 32.8357 31.6632 32.8229L33.713 32.81C34.3834 32.81 34.9378 33.3643 34.9378 34.0347C34.9378 34.718 34.3963 35.2853 33.713 35.2853L30.0645 35.311C29.8196 35.311 29.6133 35.1177 29.6133 34.8598C29.6133 34.6149 29.8067 34.4086 30.0645 34.4086H30.1032C30.7865 34.4086 31.3408 33.8413 31.3408 33.1581ZM23.7861 38.8693C23.4638 38.3278 23.2704 37.6961 23.2704 37.0386V36.394L26.9188 36.3682C27.1638 36.3682 27.3701 36.5616 27.3701 36.8194C27.3701 37.0644 27.1767 37.2706 26.9188 37.2706H26.8802C26.1969 37.2706 25.6296 37.8379 25.6425 38.5341C25.6425 38.7146 25.5007 38.8693 25.3073 38.8693H23.7861ZM29.1879 45.0962L29.4586 45.599L28.5304 45.6119C28.5175 45.5087 28.4917 45.4056 28.4272 45.3024L28.1436 44.7739L28.1178 42.4791C28.2596 42.3244 28.3886 42.1568 28.5046 41.9892H29.0976L29.1234 44.877C29.1234 44.9544 29.1492 45.0317 29.1879 45.0962ZM37.8514 45.0188L38.1221 45.5216L37.1423 45.5345C37.1294 45.4056 37.0779 45.2767 37.0005 45.1606L36.8329 44.9028L36.8071 42.4017C36.9489 42.2341 37.0907 42.0665 37.2068 41.8989C37.4646 41.886 37.7353 41.8474 37.9803 41.7829C37.9545 41.8216 37.9158 41.8474 37.8901 41.886C37.7998 41.9763 37.7611 42.0923 37.7611 42.2083L37.7869 44.7997C37.7998 44.877 37.8127 44.9544 37.8514 45.0188ZM38.0577 39.1529V38.6243C38.0577 38.3665 37.8514 38.1731 37.5935 38.1731C37.3357 38.1731 37.1423 38.3794 37.1423 38.6372V39.1658C37.1423 39.8749 36.9618 40.5581 36.6137 41.1641C36.5879 41.2027 36.5622 41.2414 36.5364 41.2801C36.3946 41.4993 36.227 41.7184 36.0336 41.9118C35.9433 42.0021 35.9047 42.1181 35.9047 42.2341L35.9305 45.0575C35.9305 45.1477 35.9562 45.238 36.0078 45.3153L36.1754 45.5603L35.1054 45.5732L35.0796 42.3501C35.0796 42.2212 35.028 42.1052 34.9378 42.015C34.6412 41.7313 34.4607 41.3446 34.4607 40.932L34.4479 40.0296C34.4479 39.7717 34.2416 39.5783 33.9837 39.5783C33.7259 39.5783 33.5325 39.7846 33.5325 40.0425L33.5454 40.9449C33.5454 40.9836 33.5454 41.0223 33.5454 41.0609L29.0203 41.0996C29.2523 40.5195 29.3812 39.9006 29.3684 39.256V38.7275C29.3684 38.4696 29.1621 38.2762 28.9042 38.2762C28.6464 38.2762 28.453 38.4825 28.453 38.7403V39.2689C28.4659 40.3003 28.0662 41.2801 27.3443 42.015C27.254 42.1052 27.2154 42.2212 27.2154 42.3373L27.2411 44.9286C27.2411 45.0059 27.2669 45.0833 27.2927 45.1477L27.5635 45.6505L26.1324 45.6634L26.1066 42.4404C26.1066 42.4017 26.0938 42.3501 26.0809 42.3115L25.5652 40.5839C25.5265 40.4679 25.4363 40.3519 25.3202 40.3003C25.0366 40.1714 24.7788 40.0038 24.5596 39.7975L25.3073 39.7846C25.9906 39.7846 26.5579 39.2174 26.545 38.5212C26.545 38.3407 26.6868 38.186 26.8802 38.186H26.9188C27.6666 38.1731 28.2854 37.5672 28.2725 36.8065C28.2596 36.0588 27.6537 35.44 26.8931 35.4529L23.3219 35.4786C23.4509 34.8727 23.7474 34.3055 24.1986 33.8542C24.8174 33.2225 25.6425 32.8744 26.5321 32.8615L30.4642 32.8229C30.4384 32.926 30.4255 33.042 30.4255 33.1581C30.4255 33.3385 30.2837 33.4932 30.0903 33.4932H30.0516C29.3039 33.5061 28.6851 34.1121 28.698 34.8727C28.7109 35.6205 29.3168 36.2393 30.0774 36.2264L33.7259 36.2006C34.912 36.1877 35.8789 35.2208 35.866 34.0218C35.866 33.519 35.6855 33.0549 35.389 32.681C35.9949 32.5908 36.6008 32.4619 37.181 32.2814L37.1939 33.9445C37.1939 33.9832 37.1939 34.0218 37.2068 34.0476C36.9103 34.3699 36.7298 34.7954 36.7298 35.2724V35.4786C36.7427 36.4584 37.542 37.2578 38.5347 37.2449L40.881 37.2191C40.7908 39.024 39.4758 40.5195 37.7482 40.8933C37.9545 40.3519 38.0705 39.7588 38.0577 39.1529ZM41.9769 35.44C41.9769 35.917 41.5901 36.3166 41.1131 36.3166L38.5347 36.3424C38.0576 36.3424 37.658 35.9556 37.658 35.4786V35.2724C37.658 34.7954 38.0448 34.3957 38.5218 34.3957L41.1002 34.3699C41.5772 34.3699 41.9769 34.7567 41.9769 35.2337V35.44ZM42.9309 31.1469C42.6988 31.2758 42.441 31.2629 42.2992 31.2371C42.2347 30.9922 42.1187 30.773 41.9898 30.5538C42.2347 30.4894 42.5957 30.4507 42.8664 30.657C42.9696 30.7343 43.0985 30.8117 43.2145 30.8633C43.1243 30.9793 43.034 31.0824 42.9309 31.1469Z" fill="#961914"/>
<path d="M38.1866 31.7528C38.1866 32.0107 38.3929 32.204 38.6507 32.204H38.6636C38.9214 32.204 39.1148 31.9978 39.1148 31.7399C39.1148 31.4821 38.9085 31.2887 38.6507 31.2887H38.6378C38.38 31.2887 38.1866 31.495 38.1866 31.7528Z" fill="#961914"/>
<path d="M40.5587 32.1783C40.8166 32.1783 41.0228 31.972 41.0228 31.7142C41.0228 31.4563 40.8166 31.2629 40.5587 31.2629H40.5458C40.288 31.2629 40.0946 31.4692 40.0946 31.7271C40.0946 31.9849 40.3009 32.1912 40.5587 32.1783Z" fill="#961914"/>
<path d="M38.7409 34.963C38.4831 34.963 38.2768 35.1692 38.2768 35.4271C38.2768 35.6849 38.4831 35.8783 38.7409 35.8783H38.7538C39.0116 35.8783 39.205 35.672 39.205 35.4142C39.205 35.1564 38.9988 34.9501 38.7409 34.963Z" fill="#961914"/>
<path d="M40.6619 34.9372C40.404 34.9372 40.1978 35.1435 40.1978 35.4013C40.1978 35.6592 40.404 35.8525 40.6619 35.8525H40.6748C40.9326 35.8525 41.126 35.6463 41.126 35.3884C41.1131 35.1435 40.9068 34.9372 40.6619 34.9372Z" fill="#961914"/>
<path d="M21.0529 40.8289C20.9369 40.8289 20.8209 40.8804 20.7306 40.9707C20.6404 41.0609 20.6017 41.1769 20.6017 41.293C20.6017 41.409 20.6533 41.525 20.7435 41.6153C20.8337 41.7055 20.9498 41.7442 21.0658 41.7442C21.1818 41.7442 21.2979 41.6926 21.3881 41.6024C21.4784 41.5121 21.517 41.3961 21.517 41.2801C21.517 41.1641 21.4655 41.048 21.3752 40.9578C21.285 40.8804 21.1689 40.8289 21.0529 40.8289Z" fill="#961914"/>
<path d="M22.1358 24.0691C22.7031 23.8628 23.786 23.6823 24.9721 23.8628C26.4418 24.082 27.6666 24.7911 28.5174 25.9127C28.5948 26.0158 28.6206 26.1576 28.569 26.2737C28.5174 26.3897 28.4014 26.4799 28.2725 26.4928C28.2596 26.4928 27.2669 26.6217 26.1582 26.8796L26.4418 27.6273C26.5192 27.8207 26.416 28.027 26.2226 28.1043C26.184 28.1172 26.1453 28.1301 26.1066 28.1301C25.9519 28.1301 25.7843 28.0399 25.7327 27.8852L25.4233 27.0859C25.2686 27.1245 25.1139 27.1761 24.9592 27.2277C24.9463 27.2277 24.9463 27.2277 24.9334 27.2277L25.2428 28.0012C25.3202 28.1946 25.2171 28.4009 25.0237 28.4782C24.985 28.4911 24.9463 28.504 24.9076 28.504C24.7529 28.504 24.5982 28.4137 24.5338 28.259L24.2244 27.4855C24.1341 27.5113 24.0439 27.55 23.9536 27.5758C23.3993 27.7691 22.9867 27.911 22.716 27.9496C22.7031 27.9496 22.6902 27.9496 22.6902 27.9496C22.4968 27.9625 22.3163 27.8078 22.2905 27.6144C22.2648 27.4082 22.4066 27.2277 22.6128 27.2019C22.7933 27.1761 23.2317 27.0343 23.6829 26.8667C23.8763 26.8022 24.0825 26.7249 24.3017 26.6475C24.4306 26.6088 24.5596 26.5573 24.7014 26.5186C24.9592 26.4413 25.2428 26.351 25.5394 26.2737C26.2742 26.0803 26.9962 25.9513 27.4861 25.874C25.707 24.1078 23.077 24.5461 22.4066 24.7911C21.878 24.9844 21.0142 25.4357 21.1302 26.2994C21.156 26.5057 21.0142 26.6862 20.8079 26.712C20.6017 26.7378 20.4083 26.5831 20.3825 26.3897C20.2536 25.3583 20.8853 24.5203 22.1358 24.0691Z" fill="#961914"/>
<path d="M18.9773 20.6914C18.655 21.6454 17.7139 24.6493 18.049 26.8538C18.049 26.8667 18.049 26.8796 18.049 26.8796C18.178 27.9496 18.887 28.9294 20.0602 29.6256C20.8466 30.0897 21.7749 30.3991 22.7805 30.541L22.8707 32.1267C22.8707 32.1267 22.9094 32.3974 22.9223 32.5908C22.9352 32.7971 22.8449 32.8873 23.0512 32.8873L26.1066 32.7584C26.3129 32.7455 26.4805 32.5779 26.4676 32.3716C26.4547 32.1654 26.2742 32.0107 26.068 32.0107L25.2429 32.0364L25.1526 30.5152C26.0293 30.3863 26.8544 30.1284 27.5634 29.7545C27.976 30.3347 28.569 30.7988 29.2394 31.0695C29.7293 31.2629 30.2579 31.3532 30.7865 31.3403C31.083 31.3274 31.3795 31.2887 31.6631 31.2113C32.2175 31.0566 32.6043 30.7601 32.7848 30.3863C32.9524 30.412 33.1328 30.4249 33.3004 30.4249C34.306 30.3863 35.2085 29.7288 35.4792 28.7232C35.621 28.1559 35.5566 27.5629 35.2729 27.0472C35.0924 26.7249 34.8475 26.4413 34.5381 26.235C35.1956 25.6033 35.4276 24.6235 35.0538 23.7468C34.7057 22.9088 33.9064 22.3416 33.0297 22.2513C33.1328 21.8903 33.1457 21.4907 33.0426 21.1039C32.9008 20.498 32.5269 19.9823 31.9983 19.6471C31.4569 19.299 30.8252 19.183 30.1934 19.3119C29.5746 19.4408 29.046 19.7889 28.6979 20.3046C28.3756 20.7945 27.8471 22.0321 27.499 23.1924C26.416 22.651 25.0882 22.3673 23.7216 22.4189C23.2059 22.4318 22.7031 22.4963 22.2132 22.5994C22.3163 21.6454 22.5226 19.6729 22.6386 18.9123C22.8965 17.2105 22.7031 16.0502 22.0456 15.3798C21.5686 14.877 20.8466 14.6707 19.9313 14.7481C17.6365 14.9415 17.3915 18.345 17.3787 18.4868C17.3658 18.6286 17.4431 18.7575 17.572 18.8349C17.701 18.9122 17.8428 18.9122 17.9717 18.8349C18.2811 18.6544 18.5389 18.5771 18.7452 18.6028C18.655 18.9638 18.5389 19.4795 18.5261 19.6213C18.5003 20.0339 18.6679 20.4464 18.9773 20.6914ZM29.5102 28.0012C29.8196 27.4597 29.9614 26.8925 29.9227 26.2994C29.8582 25.2552 29.2523 24.2883 28.1952 23.5663C28.5432 22.3545 29.0847 21.1039 29.3683 20.6785C29.6004 20.3304 29.9614 20.0854 30.3868 19.9952C30.8123 19.9049 31.2506 19.9952 31.6116 20.2272C32.3593 20.7043 32.5914 21.6712 32.1401 22.3931C32.0628 22.522 32.0628 22.6768 32.153 22.7928C32.2433 22.9088 32.3851 22.9733 32.5398 22.9475C33.3133 22.8186 34.074 23.2311 34.3705 23.9531C34.667 24.6879 34.3705 25.5388 33.6614 25.8998C33.5325 25.9642 33.4551 26.1061 33.468 26.2479C33.4809 26.3897 33.5841 26.5186 33.7259 26.5702C34.5252 26.8667 34.9635 27.6789 34.7572 28.4782C34.5381 29.3162 33.6485 29.8061 32.7848 29.574C32.7461 29.5612 32.7074 29.5483 32.6687 29.5354C32.0112 29.3807 30.5931 28.7232 29.5102 28.0012ZM28.2209 29.3678C28.5561 29.1357 28.8398 28.8779 29.0847 28.6071C30.0645 29.2517 31.2764 29.8448 32.0628 30.1542C31.9339 30.3218 31.676 30.4378 31.4569 30.5023C30.8251 30.6699 30.1548 30.6312 29.5359 30.3991C29.0074 30.18 28.5432 29.819 28.2209 29.3678ZM23.6442 32.1009L23.554 30.6054C23.7732 30.6183 24.0052 30.6183 24.2244 30.6054C24.2888 30.6054 24.3533 30.6054 24.4178 30.5925L24.508 32.0622L23.6442 32.1009ZM18.7968 26.6733C18.7194 25.3068 19.97 24.0046 21.9167 23.4374C22.5097 23.2698 23.1285 23.1667 23.786 23.1409C25.1913 23.0893 26.5321 23.4116 27.5505 24.0433C28.5304 24.6493 29.1105 25.4615 29.1621 26.3252C29.1878 26.8667 29.0331 27.3824 28.6722 27.8723C28.3885 28.2719 27.9889 28.6329 27.4861 28.9294C26.5836 29.4838 25.4105 29.8061 24.1728 29.8448C23.8247 29.8577 23.4895 29.8448 23.1543 29.819C22.1487 29.7288 21.2076 29.4322 20.447 28.981C19.4672 28.4009 18.887 27.6144 18.7968 26.7636C18.8097 26.7378 18.7968 26.712 18.7968 26.6733ZM19.7121 20.9234C20.2536 20.8976 20.7048 20.4593 20.7693 19.8663C20.7822 19.6729 20.7435 18.7575 20.7177 18.4739C20.7048 18.2676 20.5243 18.1129 20.3181 18.1129C20.1118 18.1258 19.9442 18.2934 19.9571 18.4997C19.9829 19.0412 20.0087 19.6858 20.0087 19.7889C19.9829 20.021 19.8024 20.2144 19.609 20.1886C19.5961 20.1886 19.5703 20.1886 19.5574 20.1757C19.3898 20.1241 19.2738 19.9178 19.2996 19.6987C19.3125 19.5955 19.4543 19.0025 19.5703 18.4868C19.5703 18.4739 19.5703 18.461 19.5703 18.461V18.4481C19.5703 18.4352 19.5703 18.4352 19.5703 18.4223C19.5703 18.4095 19.5703 18.4095 19.5703 18.3966V18.3837C19.5703 18.3708 19.5703 18.3708 19.5703 18.3579V18.345C19.5703 18.3321 19.5703 18.3321 19.5703 18.3192V18.3063C19.5703 18.2934 19.5703 18.2934 19.5703 18.2934V18.2805C19.5703 18.2805 19.5703 18.2676 19.5574 18.2676C19.5574 18.2676 19.5574 18.2548 19.5445 18.2548C19.5445 18.2548 19.5445 18.2419 19.5316 18.2419C19.5316 18.229 19.5187 18.229 19.5187 18.2161C19.5187 18.2161 19.5187 18.2032 19.5059 18.2032L19.493 18.1903C19.493 18.1903 19.493 18.1774 19.4801 18.1774L19.4672 18.1645L19.4543 18.1516L19.4414 18.1387C19.4285 18.1258 19.4285 18.1258 19.4156 18.1129C19.2093 17.9582 18.8097 17.7649 18.2424 17.9067C18.41 17.0429 18.8612 15.5861 20.0215 15.4829C20.7048 15.4185 21.1947 15.5474 21.5041 15.8826C21.9811 16.3725 22.1101 17.3523 21.8909 18.7962C21.762 19.6729 21.517 22.0579 21.4397 22.8315C20.4599 23.1538 19.6219 23.6566 19.016 24.2883C18.9515 24.3527 18.8999 24.4172 18.8355 24.4817C19.0417 22.9604 19.5059 21.5036 19.7121 20.9234Z" fill="#961914"/>
<path d="M20.1763 16.5401C20.6662 16.5272 20.7048 17.262 20.2149 17.2749C19.7379 17.2878 19.6864 16.553 20.1763 16.5401Z" fill="#961914"/>
<path d="M30.49 21.1813C30.9799 21.1684 31.0186 21.9032 30.5287 21.9161C30.0516 21.9419 30.0001 21.1942 30.49 21.1813Z" fill="#961914"/>
<path d="M33.0426 24.1336C33.5325 24.1207 33.5712 24.8556 33.0813 24.8684C32.6043 24.8942 32.5656 24.1465 33.0426 24.1336Z" fill="#961914"/>
<path d="M33.597 27.8981C34.0869 27.8852 34.1255 28.62 33.6356 28.6329C33.1586 28.6458 33.1071 27.9109 33.597 27.8981Z" fill="#961914"/>
<path d="M21.3752 26.9441C21.8651 26.9312 21.9038 27.666 21.4139 27.6789C20.924 27.6918 20.8853 26.957 21.3752 26.9441Z" fill="#961914"/>
</svg>
